<defs>
<font horiz-adv-x="590" ><font-face
    font-family="ebgaramondsc"
    units-per-em="1000"
    panose-1="2 0 5 2 0 0 0 0 0 0"
    ascent="1051"
    descent="-324"
    alphabetic="0" />
<missing-glyph horiz-adv-x="500" d="M50 0V473H450V0H50ZM100 50H400V423H100V50Z" />
<glyph unicode=" " glyph-name="space" horiz-adv-x="200" />
<glyph unicode="!" glyph-name="exclam" horiz-adv-x="270" d="M120 106T145 106T187 89T205 46T188 4T145 -14T103 3T85 46T102 88ZM145 649Q170 650 183 628T197 575Q197 544 193 499T185 424T173 328T161 244Q156 205 143 205Q129 205 125 244Q122 271 112
357T98 494T93 573Q93 605 106 626T145 649Z" />
<glyph unicode="&quot;" glyph-name="quotedbl" horiz-adv-x="309" d="M65 467Q68 545 62 619Q61 639 81 655Q109 676 124 676Q143 676 136 624Q124 544 91 469Q81 444 72 444Q65 444 65 467ZM196 467Q199 545 193 619Q192 639 212 655Q240 676 255 676Q274 676
267 624Q255 544 222 469Q212 444 203 444Q196 444 196 467Z" />
<glyph unicode="#" glyph-name="numbersign" horiz-adv-x="468" d="M134 206L90 27Q87 12 60 12Q55 12 52 17T50 27L94 204L31 201Q26 201 22 204T17 213Q17 220 18 229T26 250T41 261L108 264L142 402L78 399Q73 399 69 402T64 411Q64 418 65 427T73 448T88 459L157
462L199 633Q203 650 232 650Q237 650 239 645T239 633L198 464L311 470L354 644Q358 661 387 661Q392 661 394 656T394 644L352 472L411 475Q416 475 420 471T424 461Q423 459 421 451T418 440T415 431T410 423T403 418T393 415L337 412L303 274L364 277Q370 277
374 273T377 263Q376 261 374 253T371 242T368 233T363 225T356 220T346 217L288 214L245 38Q242 23 215 23Q210 23 207 28T205 38L248 212L134 206ZM149 266L263 272L296 410L183 404L149 266Z" />
<glyph unicode="$" glyph-name="dollar" horiz-adv-x="458" d="M264 270L234 26Q233 16 242 16Q300 20 326 49T352 148Q352 181 323 219T268 275Q266 276 266 276T264 270ZM292 367Q294 365 312 353T337 335T361 316T387 293T407 269T426 240T437 208T442 171Q442
139 431 107T396 46T331 -1T236 -19Q228 -19 227 -25L218 -101Q216 -116 193 -116Q186 -116 181 -112T177 -101L187 -22Q187 -15 181 -15Q160 -11 132 -2T98 8Q93 9 90 10T87 13T85 16T84 20Q76 37 65 84T53 158Q53 164 59 169T73 174Q75 174 88 145T127 79T185
26Q193 23 193 28L226 297Q226 305 214 314Q152 357 118 399T83 497Q83 520 94 546T125 596T181 638T261 659Q270 661 271 665L275 691Q278 708 304 708Q310 708 314 703T317 691L313 665Q312 659 319 658Q333 657 398 644Q412 641 416 622Q430 543 430 515Q430
508 427 499T420 490Q415 490 406 497T394 515Q373 593 312 618Q310 619 309 617T307 613L279 386Q278 382 278 380T278 377T280 374T283 373T286 371T292 367ZM259 627Q217 623 189 590T160 517Q160 465 231 411Q234 409 237 409T240 413L266 619Q266 627 259
627Z" />
<glyph unicode="%" glyph-name="percent" horiz-adv-x="735" d="M578 321T550 321T504 274T486 177Q487 116 505 63T554 10T601 59T616 165Q615 220 597 270ZM561 348Q620 348 653 297T686 177Q686 100 648 43T543 -14Q482 -14 449 38T416 166Q416 236 456 292T561
348ZM211 603T183 603T137 556T119 459Q120 398 138 345T187 292T234 341T249 447Q248 502 230 552ZM194 630Q253 630 286 579T319 459Q319 382 281 325T176 268Q115 268 82 320T49 448Q49 518 89 574T194 630ZM136 -11L548 638Q559 655 587 655Q593 655 598 649T600
638L188 -11Q179 -26 152 -26Q145 -26 139 -21T136 -11Z" />
<glyph unicode="&amp;" glyph-name="ampersand" horiz-adv-x="788" d="M724 390Q662 382 616 333Q596 312 541 253T472 179L459 165L476 141Q499 108 507 97T535 67T574 41T621 34Q637 34 658 45T688 60Q698 64 703 59Q716 46 708 40Q699 34 679 21T650 2T623
-9T586 -15Q534 -15 505 9T432 101L419 122L413 116Q407 110 387 88T361 59T337 36T309 14T281 -1T247 -12T210 -15Q142 -14 90 22T37 119Q34 263 205 342L225 351L210 367Q209 368 199 379T185 395T172 414T159 436T151 460T147 489Q147 538 186 567T280 599Q330
601 368 572T407 496Q407 449 382 414T310 361L296 356L305 346Q317 332 364 284T435 201L447 183L463 200Q555 297 569 343Q573 357 565 369T541 387Q533 390 533 400Q534 404 538 404Q557 404 586 402T635 400Q655 400 691 406T733 413Q748 413 741 402Q735 392
724 390ZM240 334L219 326Q186 313 164 294T133 250T120 205T117 157Q117 112 151 81T232 50Q283 50 321 69T398 131L407 140L395 159Q380 182 360 205T303 267T252 321L240 334ZM279 376L292 382Q347 407 347 493Q347 522 327 546T277 571Q249 571 228 555T207
513Q207 464 264 393L279 376Z" />
<glyph unicode="&apos;" glyph-name="quotesingle" horiz-adv-x="195" d="M65 467Q68 545 62 619Q61 639 81 655Q109 676 124 676Q143 676 136 624Q124 544 91 469Q81 444 72 444Q65 444 65 467Z" />
<glyph unicode="(" glyph-name="parenleft" horiz-adv-x="315" d="M40 269Q40 386 96 508T216 694Q224 702 240 704Q253 706 261 698Q270 690 262 682Q200 620 150 509T100 281Q100 159 152 15T262 -186Q268 -192 260 -204Q254 -212 242 -213Q228 -215 220 -207Q161
-148 101 1T40 269Z" />
<glyph unicode=")" glyph-name="parenright" horiz-adv-x="316" d="M266 281Q266 162 204 7T83 -207Q75 -215 61 -213Q46 -212 39 -202Q33 -194 41 -186Q99 -128 152 9T206 267Q206 385 156 503T45 682Q36 690 41 695Q50 704 67 704Q81 704 91 694Q155 630 210
514T266 281Z" />
<glyph unicode="*" glyph-name="asterisk" horiz-adv-x="340" d="M266 610Q280 622 293 607Q300 597 286 583L213 525Q260 503 295 483Q313 475 306 459Q300 446 282 452Q264 460 235 471T195 487Q200 444 201 394Q201 373 185 372Q179 371 174 377T167 390Q165
403 161 435T154 482Q127 463 75 432Q61 420 48 435Q41 445 55 459L128 517Q81 539 46 559Q28 567 35 583Q41 596 59 590Q77 582 106 571T146 555Q141 598 140 648Q140 669 156 670Q162 671 167 665T174 652Q176 639 180 607T187 560Q214 579 266 610Z" />
<glyph unicode="+" glyph-name="plus" d="M330 278Q330 273 330 273T334 272H537Q543 272 547 268T550 258Q546 246 544 240T535 228T519 222H334Q330 222 330 218V16Q330 3 313 -2T282 -8Q277 -8 274 -4T270 6V217Q270 222 266 222H64Q59 222 55 225T50 234Q50
244 56 258T74 272H263Q270 272 270 280V451Q270 465 288 473T316 482Q330 482 330 469V278Z" />
<glyph unicode="," glyph-name="comma" horiz-adv-x="228" d="M89 29Q67 31 55 42T42 71Q42 91 58 104T97 117Q133 117 156 90T180 20Q180 -49 132 -97T38 -147Q27 -147 22 -143T19 -132T32 -124Q71 -116 99 -90T128 -15Q128 -2 116 13T89 29Z" />
<glyph unicode="-" glyph-name="hyphen" horiz-adv-x="274" d="M39 170Q29 169 29 176Q34 229 45 230Q173 248 237 255Q245 255 245 249Q241 197 224 195Q107 177 39 170Z" />
<glyph unicode="." glyph-name="period" horiz-adv-x="230" d="M92 96T115 96T154 80T170 41T154 2T115 -14T76 2T60 41T76 80Z" />
<glyph unicode="/" glyph-name="slash" horiz-adv-x="399" d="M30 -47L327 648Q335 665 366 665Q372 665 376 660T379 648L82 -47Q76 -62 46 -62Q39 -62 34 -58T30 -47Z" />
<glyph unicode="0" glyph-name="zero" horiz-adv-x="507" d="M259 372Q198 372 158 325T118 204Q118 135 153 81T247 26Q312 26 350 69T389 203Q389 270 354 321T259 372ZM165 413T253 413T404 352T467 203Q467 113 405 49T253 -15T102 49T40 204Q40 291 102 352Z" />
<glyph unicode="1" glyph-name="one" horiz-adv-x="289" d="M109 68V333Q109 342 107 349T103 360T96 369T88 375T78 378T68 380T56 382T46 384Q41 384 40 389T40 400T46 406Q79 406 104 405T146 403Q162 403 187 404T243 406Q252 406 252 396T243 384Q240 383
230 382T215 379T203 374T192 366T185 353T182 333Q179 204 182 68Q182 49 193 40T213 28T253 22Q261 21 264 15T264 3T253 -3Q222 -3 193 -1T146 2Q126 2 95 0T36 -3Q30 -3 27 3T26 15T36 22Q51 23 59 24T81 30T102 44T109 68Z" />
<glyph unicode="2" glyph-name="two" horiz-adv-x="430" d="M45 297Q37 289 33 290Q25 293 25 304Q25 308 30 319T49 346T81 377T128 402T190 413Q236 413 265 377T294 290Q294 241 253 191Q233 167 188 124T132 73Q125 68 137 66Q139 65 141 65Q153 65 181 65T248
65T304 65Q332 65 357 82T397 128Q404 140 416 138Q424 138 419 126Q393 54 386 12Q385 4 382 1T377 -3T371 -4Q307 0 192 0Q93 0 29 -3Q26 -3 25 0T24 8T29 17Q69 57 90 74Q224 184 226 264Q227 300 209 322T161 345Q88 345 45 297Z" />
<glyph unicode="3" glyph-name="three" horiz-adv-x="372" d="M319 53Q319 -88 155 -169Q113 -190 86 -190Q77 -190 68 -186T59 -176Q59 -168 68 -157T86 -146Q134 -146 153 -136Q198 -112 220 -81T243 17Q243 38 238 57T212 94T157 112Q130 112 95 92Q90 89 84
92T78 101Q85 121 109 135Q147 158 179 186Q219 222 219 292Q219 321 202 339T155 358Q144 358 134 356T117 351T101 343T87 333T72 320T58 308Q48 300 46 301Q33 305 38 315Q56 349 96 381T181 413Q182 413 183 413Q231 412 260 384T289 309Q289 276 268 237T195
167Q190 163 196 161Q259 160 289 127T319 53Z" />
<glyph unicode="4" glyph-name="four" horiz-adv-x="492" d="M266 104Q270 104 274 106T278 112V281Q278 283 274 283T268 282Q201 212 116 113Q114 111 114 108T116 104H266ZM25 56Q45 81 69 108Q102 144 143 190T228 282Q241 296 271 331T311 377Q316 383 325
395T341 414T350 421Q355 422 354 413Q354 410 354 409Q354 353 352 261T350 109Q350 103 355 103Q398 101 454 104Q459 104 462 102T465 95Q462 81 456 67T444 53Q370 53 364 52Q351 49 351 46V-133Q351 -149 327 -165T293 -181Q278 -181 278 -168V41Q278 45 272
47T263 50Q222 50 155 47T34 43Q30 43 27 48T25 56Z" />
<glyph unicode="5" glyph-name="five" horiz-adv-x="375" d="M102 -189Q68 -189 68 -177Q68 -166 101 -160Q245 -136 245 0Q245 99 108 167Q55 194 58 227Q64 295 89 347Q100 370 125 380Q183 403 271 415Q276 416 279 412T283 401Q283 381 267 355T232 325Q177
314 110 312Q104 312 100 305T92 282Q87 265 111 252Q219 192 263 150Q287 127 306 90T325 17Q325 -74 255 -131T102 -189Z" />
<glyph unicode="6" glyph-name="six" horiz-adv-x="466" d="M232 -14Q138 -14 90 41T41 190Q40 341 156 477Q198 525 270 571T427 639Q433 640 438 639T441 634Q435 623 415 614Q284 557 213 456Q124 328 124 190Q124 121 158 79Q174 59 203 41T261 22Q301 22
327 43Q370 76 370 142Q370 189 343 224T276 260Q244 260 222 254Q206 250 196 245Q187 241 185 245T189 256Q201 269 216 280Q230 291 259 302T314 313Q366 313 402 278T439 190Q439 105 385 46T232 -14Z" />
<glyph unicode="7" glyph-name="seven" horiz-adv-x="460" d="M344 313Q347 317 346 319T334 323Q217 326 128 326Q127 326 120 326T111 326T101 326T91 324T82 322T72 318T64 312T55 303Q37 281 29 281T28 311Q40 361 40 395Q40 406 50 406Q51 406 61 405T87
403T113 402Q182 400 294 401T426 407Q429 407 431 401T433 392Q423 372 395 323Q363 268 266 97T115 -166Q100 -193 96 -193Q85 -193 77 -186T68 -167Q68 -163 89 -126Q142 -35 234 124T344 313Z" />
<glyph unicode="8" glyph-name="eight" horiz-adv-x="452" d="M265 340Q319 384 319 472Q319 508 295 536T237 565Q200 565 171 542T142 486Q142 465 146 450T163 418T184 395T217 368T253 340Q259 336 265 340ZM286 315Q347 275 375 242T403 157Q403 86 348 37T222
-13Q157 -13 109 28T61 132Q61 161 72 185T105 229T142 258T183 282Q189 287 188 288T180 295Q145 324 126 344T89 397T72 467Q72 521 124 555T242 589Q300 589 344 554T389 465Q389 415 341 374Q325 360 291 335Q279 326 279 323T286 315ZM197 261Q172 241 161
230T141 197T131 147Q131 98 160 61T236 24Q278 24 305 51T333 118Q333 184 223 259Q213 266 210 266T197 261Z" />
<glyph unicode="9" glyph-name="nine" horiz-adv-x="466" d="M251 414Q324 414 375 356T426 210Q426 77 300 -47Q256 -90 180 -134T55 -186Q41 -188 41 -181Q41 -172 55 -168Q97 -155 167 -99T270 0Q346 101 346 227Q346 290 309 334T218 378Q173 378 148 344T122
267Q122 220 151 181T220 142Q248 142 268 151Q275 154 286 160T300 168Q304 169 306 165T307 157Q297 139 274 122Q229 89 182 89Q129 89 91 125T53 215Q53 289 109 351T251 414Z" />
<glyph unicode=":" glyph-name="colon" horiz-adv-x="248" d="M102 96T125 96T164 80T180 41T164 2T125 -14T86 2T70 41T86 80ZM102 373T125 373T164 357T180 318T164 279T125 263T86 279T70 318T86 357Z" />
<glyph unicode=";" glyph-name="semicolon" horiz-adv-x="228" d="M83 373T106 373T145 357T161 318T145 279T106 263T67 279T51 318T67 357ZM89 29Q67 31 55 42T42 71Q42 91 58 104T97 117Q133 117 156 90T180 20Q180 -49 132 -97T38 -147Q27 -147 22 -143T19
-132T32 -124Q71 -116 99 -90T128 -15Q128 -2 116 13T89 29Z" />
<glyph unicode="&lt;" glyph-name="less" d="M133 229L513 55Q525 49 531 34T537 7Q537 2 533 -2T523 -5L94 195Q53 214 53 222Q53 231 63 246T86 268L523 468Q528 470 533 465T536 454Q525 417 505 408L132 234Q129 232 133 229Z" />
<glyph unicode="=" glyph-name="equal" d="M74 193H527Q533 193 537 189T540 179Q536 167 534 161T525 149T509 143H64Q59 143 55 146T50 155Q50 165 56 179T74 193ZM74 364H527Q533 364 537 360T540 350Q536 338 534 332T525 320T509 314H64Q59 314 55 317T50
326Q50 336 56 350T74 364Z" />
<glyph unicode="&gt;" glyph-name="greater" d="M457 234L77 408Q65 414 59 429T53 456Q53 461 57 465T67 468L496 268Q537 249 537 241Q537 232 527 217T504 195L67 -5Q62 -7 57 -2T54 9Q65 46 85 55L458 229Q461 231 457 234Z" />
<glyph unicode="?" glyph-name="question" horiz-adv-x="355" d="M123 106T148 106T190 89T208 46T191 4T148 -14T106 3T88 46T105 88ZM108 661Q166 661 216 611Q257 570 283 514T309 418Q309 357 267 334Q218 307 181 283Q151 264 149 204Q149 181 134 181Q129
181 122 189T112 210Q99 260 96 293Q94 318 118 338T197 387Q221 399 239 418T258 458Q258 509 232 540T157 573Q148 573 134 571T110 569Q94 569 81 587T68 625Q68 639 81 650T108 661Z" />
<glyph unicode="@" glyph-name="at" horiz-adv-x="916" d="M527 372Q493 372 435 315T334 193T290 103Q290 77 298 77Q327 77 390 139T505 271T557 360Q557 364 547 368T527 372ZM448 -226Q348 -226 257 -180T108 -48T50 140Q50 263 108 371T270 546T498 612Q647
612 756 528T866 307Q866 221 812 156T676 59T500 27Q485 27 477 42T470 75Q472 99 486 143T514 215Q524 235 517 240Q515 242 512 239Q470 191 442 160T376 92T307 36T253 17Q239 17 225 30T211 60Q211 79 271 164T412 332T538 414Q547 414 555 410T569 404T576
403L582 415Q589 427 598 436T617 445Q623 445 627 444T632 442T636 437T640 431Q644 425 636 403Q617 350 589 267T541 131Q533 110 544 88T576 65Q678 65 749 133T820 301Q820 423 724 500T496 578Q386 578 298 515T162 351T115 138Q115 10 215 -85T450 -180Q635
-180 739 -64Q753 -49 763 -57Q768 -60 765 -66Q761 -77 739 -100T678 -153T578 -204T448 -226Z" />
<glyph unicode="A" glyph-name="A" horiz-adv-x="684" d="M178 102Q170 76 187 57T234 30Q267 21 267 10T238 -1Q233 -1 195 0T132 1Q111 1 77 -2T27 -5Q-2 -5 -2 8Q-2 20 31 31Q91 49 117 108Q213 328 304 578Q305 581 307 586T311 597T314 608Q315 612 315 619T316
631T318 636Q345 645 354 651Q360 655 364 661T370 672T375 676Q380 676 385 662Q459 429 563 128Q582 73 605 54T664 28Q697 22 697 5Q697 -5 668 -5Q657 -5 620 -2T559 1Q529 2 482 1T430 0Q401 0 401 11T434 31Q472 41 480 56T481 105Q464 186 452 233Q449 244
424 244H233Q221 244 216 226T203 184T190 141T178 102ZM333 542Q322 513 290 429T243 302Q239 292 243 290T262 287H417Q428 287 430 289T429 302Q382 443 350 541Q346 554 344 557T339 557T333 542Z" />
<glyph unicode="B" glyph-name="B" horiz-adv-x="568" d="M198 408Q198 395 200 388T207 378T215 374T228 372Q250 370 286 375T355 400Q371 409 385 433T400 495Q400 549 370 588T264 627Q226 627 215 617T202 581Q196 449 198 408ZM120 549Q120 584 106 599T53
622Q20 628 20 642Q20 653 49 653T106 653T153 652Q170 652 201 654T264 657Q377 657 431 623T486 508Q486 446 452 412Q422 384 385 369Q381 367 381 364T385 359Q415 350 434 341T477 314T514 265T527 194Q527 155 518 126T490 78T458 50T423 30Q355 -4 263 -4Q258
-4 220 -2T156 0Q137 0 103 -2T38 -5Q9 -5 9 6Q9 18 42 24Q82 31 101 48T120 99V549ZM433 189Q433 277 359 318Q314 343 255 343Q226 343 209 332Q200 326 198 307Q195 245 200 108Q202 71 217 56Q236 37 277 37Q337 37 385 81T433 189Z" />
<glyph unicode="C" glyph-name="C" horiz-adv-x="640" d="M586 137Q589 142 593 145T604 152T611 156Q616 159 618 149Q621 139 619 130Q608 59 586 26Q584 22 578 20T559 13T537 5Q494 -15 369 -15Q234 -15 140 85T46 323Q46 466 154 564T410 663Q480 663 516
651T592 633Q603 631 605 603Q612 549 613 494Q614 486 612 478T602 471Q582 473 576 508Q570 554 541 581Q490 632 394 632Q287 632 217 547T146 347Q146 264 176 189T265 65T400 16Q524 16 586 137Z" />
<glyph unicode="D" glyph-name="D" horiz-adv-x="754" d="M166 0Q146 0 116 -2T58 -5Q29 -5 29 6Q29 18 62 24Q100 31 114 47T129 99V549Q129 584 115 599T62 622Q29 628 29 642Q29 653 58 653T115 652T162 651Q183 650 256 654T340 659Q534 659 619 575T704 335Q704
194 609 94T371 -7Q367 -7 290 -4T166 0ZM609 346Q609 466 535 547T345 628Q313 628 297 628T261 624T232 615T217 597T210 567V121Q210 93 218 79T245 50Q260 39 277 34T305 29T340 29T376 30Q449 30 503 78T583 196T609 346Z" />
<glyph unicode="E" glyph-name="E" horiz-adv-x="541" d="M216 374Q216 352 226 352H330Q358 352 374 367Q385 377 391 391Q393 395 399 401T409 408Q413 408 418 403T422 392Q418 345 422 269Q422 252 413 252Q397 252 390 275Q379 310 343 314Q280 323 240 316Q215
311 216 291Q216 266 219 113Q220 74 234 55T282 35H386Q394 35 424 41T462 53Q481 68 504 116Q509 127 518 126Q524 126 528 123T531 114Q525 56 514 12Q510 -5 500 -5Q433 -5 327 -2T173 1Q152 1 119 -2T58 -5Q29 -5 29 6Q29 18 62 24Q101 31 118 47T136 99V549Q136
584 122 599T69 622Q36 628 36 642Q36 653 65 653Q88 653 168 651Q237 649 350 651T468 653Q485 653 486 644Q497 586 498 541Q498 532 484 532Q476 532 473 542Q461 578 450 591Q426 618 383 618H252Q243 618 232 609T220 588Q216 556 216 374Z" />
<glyph unicode="F" glyph-name="F" horiz-adv-x="503" d="M235 611Q220 611 213 603T204 586T201 561Q197 467 201 374Q201 352 211 352Q234 352 275 353T327 355Q355 355 371 370Q382 380 388 394Q390 398 396 404T406 411T415 406T419 395Q415 348 419 272Q419
255 410 255Q394 255 387 278Q375 316 340 317Q271 319 225 316Q201 315 201 291Q201 167 204 101Q206 67 220 49T270 24Q303 18 303 6Q303 -5 274 -5T219 -2T176 2Q152 2 115 -1T50 -5Q21 -5 21 6Q21 18 54 24Q92 31 106 47T121 100V522Q121 570 109 593T60 622Q27
628 27 642Q27 653 56 653Q75 653 155 651Q223 649 335 651T453 653Q470 653 471 644Q474 630 476 544Q476 523 467 523Q455 523 452 535Q440 571 429 584Q405 611 362 611H235Z" />
<glyph unicode="G" glyph-name="G" horiz-adv-x="729" d="M621 624Q632 547 632 512Q632 504 628 498T617 492Q603 492 594 519Q583 549 563 572Q549 590 508 607T404 625Q293 625 219 545T144 346Q144 217 215 120T401 23Q480 24 534 60Q558 76 558 137Q558 145
559 168T560 206T555 225Q544 240 511 248T457 256Q452 256 445 261T437 273T444 285T457 290Q481 290 518 288T583 286Q600 286 627 288T672 290Q693 290 693 274Q693 268 685 263T672 256Q651 250 642 239T630 207Q624 171 625 105Q625 99 631 89Q633 86 638
81T644 72Q644 61 630 54Q570 23 523 9Q445 -14 399 -14Q254 -14 150 86T45 329Q45 471 154 567T413 663Q455 663 537 649T621 624Z" />
<glyph unicode="H" glyph-name="H" horiz-adv-x="823" d="M690 100Q691 60 700 45T745 24Q778 18 778 6Q778 -5 749 -5T692 -3T645 0T597 -2T538 -5T509 6Q509 18 542 24Q610 37 610 97Q611 131 611 165T611 238T610 295Q610 302 605 302Q372 306 223 302Q218
302 218 291Q218 264 218 206T219 106Q219 75 240 53T297 24Q330 18 330 6Q330 -5 301 -5Q273 -5 240 -3T184 0Q164 0 133 -2T74 -5Q45 -5 45 6Q45 18 78 24Q114 31 126 46T138 99V551Q138 588 129 602T85 622Q52 628 52 642Q52 653 81 653T138 652T184 650Q203
650 232 651T290 653T319 642Q319 628 286 622Q218 610 218 551V359Q218 350 232 350Q446 345 603 350Q610 350 610 362Q610 391 610 451T609 552Q609 610 544 622Q511 628 511 642Q511 653 540 653Q568 653 601 652T656 650Q671 650 694 651T747 653T776 642Q776
628 743 622Q709 616 700 601T690 552V100Z" />
<glyph unicode="I" glyph-name="I" horiz-adv-x="383" d="M151 550Q151 585 137 600T84 622Q51 628 51 642Q51 653 80 653Q108 653 141 652T197 650Q217 650 247 651T306 653Q335 653 335 642Q335 628 302 622Q263 615 247 600T231 550V98Q231 64 250 48T310 24Q343
18 343 6Q343 -5 314 -5Q286 -5 253 -3T197 0Q172 0 134 -2T69 -5Q40 -5 40 6Q40 18 73 24Q113 31 132 47T151 98V550Z" />
<glyph unicode="J" glyph-name="J" horiz-adv-x="283" d="M133 0V551Q134 585 120 600T67 622Q34 628 34 642Q34 653 63 653Q91 653 124 652T180 650Q196 650 220 651T274 653T303 642Q303 628 270 622Q234 616 224 602T213 551V142Q213 67 210 18T196 -61T181
-102T160 -134Q115 -198 46 -200Q-4 -201 -35 -189T-66 -158Q-66 -138 -55 -121T-30 -103Q3 -103 20 -129Q40 -159 70 -158Q133 -155 133 0Z" />
<glyph unicode="K" glyph-name="K" horiz-adv-x="681" d="M439 620Q408 628 408 640Q408 651 437 651Q459 651 483 651T511 651Q628 653 646 655Q675 658 675 644T642 624Q548 607 490 558Q396 478 298 371Q292 364 303 353Q355 295 426 222T545 95Q580 56 597
45T655 24Q688 17 688 6T659 -5T594 -3T537 0T491 0T439 -1Q410 -1 410 10T437 27T464 45T450 72Q311 228 238 306Q222 323 215 323Q211 323 211 302Q211 243 216 110Q219 35 280 24Q313 18 313 6Q313 -5 284 -5T229 -2T186 2Q162 2 125 -1T60 -5Q31 -5 31 6Q31
18 64 24Q102 31 116 47T131 101V551Q131 585 117 600T64 622Q31 628 31 642Q31 653 60 653Q88 653 119 652T172 651Q189 651 214 652T269 653T298 642Q298 628 265 622Q230 616 221 600T211 551V364Q211 345 216 345Q225 345 243 363L443 567Q459 584 458 599T439
620Z" />
<glyph unicode="L" glyph-name="L" horiz-adv-x="576" d="M212 567V96Q212 63 227 49T289 35H435Q441 35 460 43T491 61Q523 89 543 132Q554 162 565 162Q572 162 575 154T576 139Q553 53 549 12Q547 -5 535 -5Q464 -5 351 -3T192 0L57 -5Q29 -5 29 7Q29 18 51
24Q92 32 112 48T132 96V560Q132 595 121 605T71 622Q38 628 38 642Q38 653 67 653Q95 653 126 652T179 650Q203 650 240 651T305 653Q334 653 334 642Q334 628 301 622Q277 618 265 615T239 606T218 591T212 567Z" />
<glyph unicode="M" glyph-name="M" horiz-adv-x="901" d="M735 568Q735 485 738 407T748 233T757 95Q758 64 776 48T832 24Q865 18 865 6Q865 -5 836 -5Q808 -5 775 -3T719 0Q700 0 672 -2T614 -5T585 6Q585 20 618 24Q647 28 658 44T669 96Q669 194 657 464Q656
495 641 464L419 14Q414 3 410 -2T404 -9T398 -8T393 1T388 16Q332 184 209 471Q199 494 196 471Q172 295 164 104Q163 80 179 55T229 24Q262 18 262 6Q262 -5 233 -5T180 -3T139 0T100 -2T48 -5T19 6Q19 18 52 24Q103 33 114 102Q155 409 155 538Q155 539 155
542Q155 556 155 562T151 576T139 593Q133 600 126 605T108 613T90 619T71 623T56 627Q42 632 42 644Q42 655 65 655Q85 655 152 651T231 647Q239 647 245 631T258 588T267 554L425 153Q436 125 448 150L645 560Q651 573 655 596T663 633T673 648H709Q733 648 773
652T820 656Q844 656 844 646Q844 632 818 623Q792 615 780 611T751 595T735 568Z" />
<glyph unicode="N" glyph-name="N" horiz-adv-x="790" d="M674 568Q672 520 672 8Q672 -17 651 -17Q640 -17 616 -1T570 46Q541 86 214 484Q205 496 199 499T189 499T186 490T184 479Q172 348 170 104Q169 36 234 24Q267 18 267 6Q267 -5 238 -5T185 -3T144 0Q129
0 106 -2T53 -5T24 6Q24 18 57 24Q81 29 97 58T115 107Q120 150 144 504Q147 551 124 576Q99 602 43 620Q12 630 12 644T35 658Q66 657 107 655T189 653Q201 653 213 636Q226 618 400 399T594 156Q627 116 629 157Q631 188 631 358T631 564Q630 582 611 599T573
619Q540 625 540 639Q540 650 569 650Q590 650 618 650T649 650Q662 650 686 651T741 653Q770 653 770 642Q770 628 737 622Q700 615 688 604T674 568Z" />
<glyph unicode="O" glyph-name="O" horiz-adv-x="763" d="M375 625Q269 625 206 543T142 350Q142 218 214 122T395 25Q505 25 563 99T621 305Q621 451 557 538T375 625ZM45 320Q45 462 134 561T382 664Q519 667 618 574T718 335Q718 267 696 205T633 93T526 15T382
-14Q247 -14 146 83T45 320Z" />
<glyph unicode="P" glyph-name="P" horiz-adv-x="557" d="M188 2Q163 2 124 -1T58 -5Q29 -5 29 6Q29 18 62 24Q101 31 118 47T135 100V522Q135 570 123 593T74 622Q41 628 41 642Q41 653 70 653T124 653T168 652Q190 652 228 654T279 657Q395 657 468 607T542
460Q542 424 521 376T468 304Q428 274 375 262T281 257Q263 261 263 269T275 280Q277 280 279 280Q343 271 391 307Q452 354 454 471Q455 548 401 589T279 630Q215 630 215 588V111Q215 36 282 24Q315 18 315 6Q315 -5 286 -5T231 -2T188 2Z" />
<glyph unicode="Q" glyph-name="Q" horiz-adv-x="806" d="M383 626Q276 626 207 544T139 352Q140 219 224 116T430 12Q502 12 557 61T639 181T666 324Q666 443 584 534T383 626ZM373 -54Q358 -42 315 -18T259 10Q229 18 194 42T124 103T68 194T45 307Q45 457 146
559T402 662Q492 662 572 628T707 520T761 350Q761 282 743 226T700 135T639 70T577 28T519 0Q490 -13 504 -28Q545 -72 624 -129Q674 -165 707 -178T793 -192Q836 -194 858 -185Q888 -173 888 -189Q888 -204 870 -215Q813 -248 753 -248Q635 -248 531 -173Q459
-122 373 -54Z" />
<glyph unicode="R" glyph-name="R" horiz-adv-x="694" d="M215 366Q214 343 225 337T263 329Q328 328 372 368Q417 411 417 489Q417 514 412 535T393 579T351 614T283 627Q245 627 233 613T219 573Q217 525 215 366ZM642 -21Q548 -21 504 33Q499 39 477 65T448
101T423 135T389 184T352 241Q337 266 309 280Q273 297 230 302Q222 303 219 298T215 282V110Q215 36 282 24Q315 18 315 6Q315 -5 286 -5T231 -2T188 2Q163 2 124 -1T58 -5Q29 -5 29 6Q29 18 62 24Q101 31 118 47T135 100V522Q135 570 123 593T74 622Q41 628 41
642Q41 653 70 653T124 653T168 652Q184 652 218 654T283 657Q392 657 449 614T507 489Q507 459 492 426T463 379Q415 334 390 321Q385 319 390 312Q393 307 407 285T426 257T443 232T461 206T478 182T498 157T518 133T541 108T565 84T593 58Q618 36 642 31T708
25Q723 25 723 14Q723 -5 697 -13T642 -21Z" />
<glyph unicode="S" glyph-name="S" horiz-adv-x="465" d="M223 17Q277 17 307 53T338 145Q338 190 301 230T193 318Q132 359 99 400T66 497Q66 565 123 614T267 664Q295 664 322 659T366 649T386 644Q392 644 397 637T403 621Q411 573 412 539Q413 512 405 512Q391
512 382 520T370 540Q363 583 332 607T258 631Q210 631 177 602T143 523Q143 494 168 462T216 412T276 371Q306 352 324 338T369 298T408 241T422 173Q422 141 410 110T375 49T309 2T214 -16Q131 -16 80 8Q63 16 59 25Q43 58 41 139Q40 146 47 158T63 169Q72 168
92 103Q106 60 141 39T223 17Z" />
<glyph unicode="T" glyph-name="T" horiz-adv-x="670" d="M376 102Q376 38 455 24Q488 18 488 6Q488 -5 459 -5Q431 -5 398 -3T342 0Q318 0 280 -2T214 -5Q185 -5 185 6Q185 18 218 24Q257 31 276 49T296 102V557Q296 597 278 600Q257 604 157 604Q131 604 108
594T75 565Q69 553 57 540T34 527Q27 527 27 538T32 560Q54 606 63 671Q66 694 80 694Q88 694 105 662Q116 642 175 642H556Q594 642 614 656Q621 661 631 671T649 686T664 692Q668 692 670 680T670 660Q652 585 654 552Q655 542 650 530T638 517Q627 517 619 558Q610
604 527 604Q428 604 392 600Q376 598 376 557V102Z" />
<glyph unicode="U" glyph-name="U" horiz-adv-x="738" d="M645 547Q644 531 635 254Q631 137 560 62T380 -14Q242 -14 173 77T103 322V547Q103 607 57 620Q24 629 24 642Q24 653 53 653Q67 653 98 652T149 650Q166 650 193 651T229 652Q258 652 258 641Q258 632
225 621Q211 617 197 597T183 549V294Q183 191 245 114T403 36Q496 36 544 107T592 300Q592 357 588 511Q586 609 547 620Q514 629 514 640T543 651Q558 651 581 651T618 650Q635 650 662 651T699 653Q728 653 728 642Q728 629 695 622Q648 613 645 547Z" />
<glyph unicode="V" glyph-name="V" horiz-adv-x="672" d="M541 520L351 60Q348 53 344 41T336 21T328 3T321 -10T316 -15Q313 -15 286 56L112 522Q81 606 33 620Q0 630 0 642Q0 653 29 653Q43 653 82 652T146 650T208 651T253 652Q282 652 282 641T249 621Q219
614 205 582T206 504L322 197Q330 177 335 172T345 172T358 197L489 521Q500 549 482 581T440 620Q407 629 407 640T436 651Q446 651 486 651T553 650Q573 650 605 651T649 653Q678 653 678 642Q678 629 645 622Q611 614 583 583T541 520Z" />
<glyph unicode="W" glyph-name="W" horiz-adv-x="916" d="M455 591Q471 544 500 478Q503 471 505 468T509 465T513 468T518 478Q538 523 558 591Q561 602 556 609T543 620T529 629T522 641Q522 652 551 652Q567 652 581 651T606 650T633 651T662 653Q691 653 691
642Q691 629 658 622Q628 615 616 606T590 574Q570 539 537 451Q527 424 531 413Q620 182 634 148Q638 138 645 154Q683 255 767 541Q787 608 743 620Q710 629 710 640T739 651Q751 651 778 651T823 650Q838 650 864 651T901 653Q930 653 930 642Q930 629 897 622Q844
610 815 534L654 58Q629 -12 622 -12Q613 -12 605 7Q574 77 533 184T482 316Q478 326 473 316Q472 314 471 310Q415 179 357 15Q346 -16 335 -16Q332 -16 321 12L105 554Q80 606 33 620Q0 630 0 642Q0 653 29 653Q44 653 70 652T113 650Q135 650 169 651T211 652Q240
652 240 641T207 621Q191 617 188 598T190 562L195 545Q272 348 359 152Q368 133 374 151Q390 190 413 248T452 344Q458 362 458 369T450 396Q398 525 393 538Q381 568 354 590T298 620Q265 630 265 642Q265 653 294 653Q309 653 337 652T384 650Q401 650 428 651T465
652Q494 652 494 641Q494 634 482 628T460 613T455 591Z" />
<glyph unicode="X" glyph-name="X" horiz-adv-x="707" d="M666 26Q699 17 699 6T670 -5Q659 -5 621 -3T559 1Q528 2 478 1T424 0Q395 0 395 11T428 31Q444 36 455 45T471 72T460 111L356 262Q344 279 334 267L199 93Q184 71 195 54T235 30Q268 21 268 10T239 -1Q235
-1 196 0T132 1Q111 1 75 -2T24 -5Q-5 -5 -5 6Q-5 18 28 28Q59 37 101 63T171 124L296 280Q320 314 312 325L167 529Q142 563 110 588T51 622Q18 632 18 644Q18 655 47 655Q62 655 104 653T170 650Q197 649 241 650T289 652Q318 652 318 641T285 621Q259 615 255
583T267 528L358 400Q368 385 373 385T388 397L495 538Q510 557 504 585T476 620Q443 629 443 640T472 651Q480 651 516 650T577 650Q595 651 625 653T667 656Q696 656 696 645T663 625Q621 614 533 510L418 374Q395 348 404 334L559 111Q606 42 666 26Z" />
<glyph unicode="Y" glyph-name="Y" horiz-adv-x="578" d="M264 108V256Q264 267 262 277T257 297T250 311T243 323T239 330Q186 415 122 522Q67 610 33 620Q0 630 0 642Q0 653 29 653Q42 653 81 652T146 650Q163 650 190 651T226 652Q255 652 255 641Q255 632
222 621Q212 618 205 612T194 593T203 560Q233 508 260 459T295 395Q301 385 303 381T309 371T315 363T319 359T324 357T328 360T333 364T339 372T347 382T356 395Q414 476 440 534Q452 560 445 587T417 620Q384 629 384 640T413 651Q428 651 451 651T488 650Q508
650 541 651T584 653Q613 653 613 642Q613 629 580 622Q540 614 480 526Q427 445 369 346Q351 315 348 301T344 256V108Q344 74 364 53T423 24Q456 18 456 6Q456 -5 427 -5Q399 -5 366 -3T310 0Q286 0 248 -2T182 -5Q153 -5 153 6Q153 18 186 24Q264 38 264 108Z"
/>
<glyph unicode="Z" glyph-name="Z" horiz-adv-x="603" d="M433 41Q517 48 557 142Q565 163 579 163Q588 163 588 150Q588 141 574 85T551 12Q542 -5 533 -5Q481 -5 329 -3T155 -3H35Q32 -3 31 0T28 8V11Q28 26 86 104Q321 425 428 588Q439 603 413 604Q246 609
165 604Q137 602 111 586T73 535Q60 503 45 503Q29 503 43 541Q66 610 70 652Q71 669 85 669Q92 669 110 655Q121 647 183 647Q380 644 559 649Q564 649 568 642T570 631Q565 624 509 550Q293 259 171 70Q166 63 168 53T179 41Q276 29 433 41Z" />
<glyph unicode="[" glyph-name="bracketleft" horiz-adv-x="373" d="M150 702L315 701Q322 701 328 697T333 686Q329 676 307 674Q296 673 191 673Q180 673 174 665T167 644Q161 495 161 262Q161 -81 162 -118Q163 -151 168 -159T191 -167Q250 -167 307 -172Q333
-174 333 -190Q333 -203 307 -203L143 -200Q124 -200 118 -195T113 -170L117 542Q117 559 115 589T113 640Q113 646 113 654T112 668T112 681T118 694Q120 697 122 699T128 701T134 702T142 702T150 702Z" />
<glyph unicode="\" glyph-name="backslash" horiz-adv-x="399" d="M378 -47Q380 -53 375 -57T362 -62Q332 -62 326 -47L29 648Q27 654 31 659T42 665Q73 665 81 648L378 -47Z" />
<glyph unicode="]" glyph-name="bracketright" horiz-adv-x="370" d="M223 702Q225 702 229 702T235 702T241 702T246 701T251 699T255 694Q259 688 260 681T262 669T261 655T260 640Q260 621 258 591T256 542L260 -170Q260 -189 255 -194T230 -200L66 -203Q40
-203 40 -190Q40 -174 66 -172Q124 -167 182 -167Q199 -167 204 -159T211 -118Q212 -69 212 262Q212 465 206 644Q204 673 182 673Q77 673 66 674Q43 676 40 686Q38 692 44 696T58 701L223 702Z" />
<glyph unicode="^" glyph-name="asciicircum" horiz-adv-x="500" d="M250 603Q397 394 449 305Q454 297 451 290T441 284Q414 291 404 302Q392 316 369 347T328 404T284 469T254 514Q248 521 244 514Q110 318 96 302Q84 290 59 284Q52 282 49 289T51 305Q76 348
149 456T250 603Z" />
<glyph unicode="_" glyph-name="underscore" horiz-adv-x="500" d="M24 -132H487Q493 -132 497 -136T500 -146Q496 -158 494 -164T485 -176T469 -182H14Q9 -182 5 -179T0 -170Q0 -160 6 -146T24 -132Z" />
<glyph unicode="`" glyph-name="grave" horiz-adv-x="279" d="M178 471Q144 518 109 556T57 611T40 636Q40 646 50 655T74 664Q108 664 125 637Q147 601 182 537T218 462Q218 449 205 449Q194 449 178 471Z" />
<glyph unicode="a" glyph-name="a" horiz-adv-x="555" d="M270 337Q249 285 199 176Q196 170 199 168T212 166H329Q337 166 338 167T337 176Q331 198 282 337Q279 345 278 347T275 347T270 337ZM37 -3Q31 -3 31 8T37 21Q73 33 94 50Q112 64 125 92Q170 187 241
360Q245 373 248 386Q249 391 250 399T252 412L253 418Q259 419 276 431T298 449Q310 463 312 463Q316 463 319 454Q339 400 378 288T444 107Q455 75 479 50Q501 26 524 21Q530 19 531 8T524 -3Q505 -3 476 -1T428 2Q407 2 374 0T324 -3Q320 -3 319 3T320 15T325
21Q351 26 365 48Q373 62 367 89Q365 100 353 132Q351 139 334 139H192Q185 139 180 127Q165 87 164 84Q159 61 165 51Q180 27 207 21Q214 20 214 9T207 -3Q187 -3 157 -1T108 2Q94 2 72 0T37 -3Z" />
<glyph unicode="b" glyph-name="b" horiz-adv-x="441" d="M155 281Q156 265 160 261T176 256Q221 252 260 275Q289 292 289 340Q289 377 272 399T201 421Q174 421 165 414T154 390Q153 337 155 281ZM200 -3Q195 -3 160 0T108 3Q92 3 58 1T15 -2Q10 -2 10 9T15
22Q46 25 60 37Q80 55 80 79V352Q80 389 71 399Q53 419 28 425Q25 426 23 432T21 444T27 450Q41 450 67 449T111 448Q123 448 151 450T201 453Q363 453 363 349Q363 301 341 279Q327 266 284 249Q282 248 282 246T284 242Q306 235 318 230T348 213T374 181T383
132Q383 53 313 14Q286 -3 200 -3ZM300 129Q300 189 266 209Q237 226 194 226Q173 226 163 218Q155 213 155 201Q153 157 155 80Q157 54 167 44Q179 30 210 30Q250 30 275 57T300 129Z" />
<glyph unicode="c" glyph-name="c" horiz-adv-x="429" d="M263 458Q309 458 335 450Q341 448 363 444T392 437Q397 436 401 416Q405 373 406 340Q406 335 402 329T393 324Q373 326 371 346Q367 380 346 401Q335 412 307 419T247 427Q176 427 136 370T95 239Q95
154 140 89T261 21Q300 20 345 47Q372 62 383 99Q384 104 395 108T413 112Q422 112 420 94Q418 82 407 55T387 15Q382 5 333 -4T239 -14Q147 -14 80 56T12 222Q12 322 86 390T263 458Z" />
<glyph unicode="d" glyph-name="d" horiz-adv-x="519" d="M181 43Q194 33 267 33Q330 33 376 81Q421 130 421 242Q421 306 373 363T246 422Q158 422 158 383V91Q158 61 181 43ZM263 -3Q260 -3 209 0T125 3Q101 3 64 2T21 0Q17 0 17 11T21 24Q48 31 64 48Q82 67
83 89V350Q83 390 74 400Q64 411 59 414T34 423Q31 424 29 430T27 442T33 448Q47 448 73 447T115 446Q128 446 181 449T243 453Q370 453 438 391T506 235Q505 146 452 79Q425 45 374 21T263 -3Z" />
<glyph unicode="e" glyph-name="e" horiz-adv-x="421" d="M257 216Q209 223 171 217Q154 214 154 200Q154 168 156 90Q158 39 199 39H287Q292 39 310 43T335 51Q353 66 367 97Q371 104 382 104Q391 104 391 96Q387 56 374 10Q372 -2 365 -2Q314 -2 234 0T122 3L15
-3Q13 -3 12 3T11 15T15 21Q46 30 60 42Q79 59 79 79V357Q79 398 70 407Q67 410 65 412T61 416T57 419T51 421T45 423T37 426T27 429Q22 430 22 440T27 450Q41 450 66 449T108 448Q146 448 202 449T297 450T343 451Q354 451 355 445Q366 388 366 353Q366 347 355
347Q350 347 347 354Q338 381 327 392Q312 410 285 410H179Q173 410 168 405T162 392Q157 364 156 339Q154 273 154 268Q154 253 161 253H248Q267 253 278 263Q287 272 290 281Q299 294 304 294Q307 294 310 291T313 283Q310 243 313 182Q315 170 307 170Q298 170
289 189Q283 211 257 216Z" />
<glyph unicode="f" glyph-name="f" horiz-adv-x="379" d="M224 -3Q209 -3 189 -1T130 2L28 -4Q26 -4 25 3T24 19T28 27Q55 34 70 49Q83 60 83 89V350Q83 392 74 402Q71 405 69 407T65 411T61 413T55 415T49 417T41 420T31 423Q26 425 25 437T31 450Q46 450 65
449T97 448Q138 448 194 449T290 451T337 452Q349 452 350 445Q351 441 354 359Q354 353 343 353Q333 353 332 360Q324 385 316 394Q298 413 269 413H181Q176 413 171 407T164 395Q161 377 160 350Q158 282 158 263Q158 247 165 247Q181 247 210 248T245 249Q264
249 276 260Q283 266 287 276Q288 279 295 283T305 288T311 285T314 277Q310 245 314 182Q314 170 308 170Q301 170 295 176T287 186Q279 211 254 213Q213 216 174 212Q158 212 158 195Q158 167 160 89Q160 81 161 76T164 66T168 60T173 53T179 47Q190 34 224 27Q227
26 228 12T224 -3Z" />
<glyph unicode="g" glyph-name="g" horiz-adv-x="507" d="M272 24Q322 24 360 46Q381 60 381 102Q381 108 382 122T383 145T379 157Q370 167 349 172T312 178Q303 178 298 204Q298 212 301 212Q322 212 354 211T405 209Q421 209 446 210T483 211Q492 211 492 205Q492
181 485 178Q448 167 446 145Q443 113 443 74Q443 70 447 63Q448 61 452 58T456 52Q456 44 446 39Q398 13 367 4Q312 -12 271 -12Q169 -12 95 55T20 222T101 387T290 454Q361 454 404 440Q426 433 429 420Q442 368 442 342Q442 328 431 328Q421 328 412 334T401
347Q390 378 378 393Q351 423 275 422Q202 421 153 369T104 238Q104 152 150 88T272 24Z" />
<glyph unicode="h" glyph-name="h" horiz-adv-x="605" d="M164 259Q164 253 174 253Q315 250 418 253Q423 253 423 261V377Q423 391 407 405Q394 416 363 429Q358 431 358 441T363 452Q385 452 413 451T459 450Q478 450 508 451T559 452Q565 452 565 442T559 429Q524
415 512 404Q498 392 498 377V82Q498 58 512 45Q532 27 566 21Q574 19 574 8T566 -3Q546 -3 513 -1T459 2Q439 2 407 0T356 -3Q352 -3 350 2T348 14T356 21Q391 28 410 45Q423 57 423 82V211Q423 216 419 216Q272 219 167 216Q164 216 164 209V82Q164 58 178 45Q197
27 231 21Q240 19 240 8T231 -3Q211 -3 180 -1T129 2Q108 2 75 0T22 -3Q18 -3 16 2T14 14T22 21Q57 28 76 45Q89 57 89 82V377Q89 391 73 405Q60 416 29 429Q26 430 25 436T24 447T29 452Q51 452 80 451T129 450Q147 450 175 451T224 452Q230 452 230 442T224 429Q190
415 178 404Q164 394 164 377V259Z" />
<glyph unicode="i" glyph-name="i" horiz-adv-x="320" d="M203 377V82Q203 58 217 45Q236 27 270 21Q279 19 279 8T270 -3Q250 -3 219 -1T168 2Q147 2 114 0T61 -3Q57 -3 55 2T53 14T61 21Q96 28 115 45Q128 57 128 82V377Q128 391 112 405Q99 416 68 429Q65 430
64 436T63 447T68 452Q90 452 119 451T168 450Q186 450 214 451T263 452Q269 452 269 442T263 429Q229 415 217 404Q203 394 203 377Z" />
<glyph unicode="j" glyph-name="j" horiz-adv-x="270" d="M105 376Q105 391 89 405Q77 416 45 429Q42 430 41 436T40 447T45 452Q67 452 96 451T145 450Q163 450 191 451T240 452Q246 452 246 442T240 429Q206 415 194 404Q180 393 180 376V136Q180 28 175 -9Q165
-83 121 -128Q99 -151 69 -163T14 -175Q-32 -175 -56 -167Q-88 -156 -89 -136Q-90 -103 -58 -89Q-47 -84 -35 -89T-15 -104Q7 -132 30 -132Q71 -132 85 -112Q101 -89 103 -52Q105 -13 105 86V376Z" />
<glyph unicode="k" glyph-name="k" horiz-adv-x="524" d="M417 66Q437 43 451 35T499 18Q504 16 505 5T499 -7Q491 -7 465 -4T421 0Q393 0 347 -2T298 -4Q292 -4 292 7T296 20Q300 21 306 22T318 25T327 27T334 31T337 36Q337 46 326 57Q308 77 263 130T191 213Q180
225 176 225Q173 225 173 210Q173 167 176 83Q177 52 185 44Q203 26 226 20Q234 18 234 7T226 -4Q207 -4 182 -2T140 0Q119 0 86 -2T36 -4Q32 -4 30 1T28 13T36 20Q68 28 86 47Q98 59 98 83V375Q98 389 83 402Q63 420 42 425Q38 426 38 438T42 450Q62 450 91 449T140
447Q156 447 181 448T226 450Q232 450 232 438T226 425Q204 422 187 408Q177 399 176 375Q173 293 173 253Q173 245 176 245Q184 245 191 252L323 384Q331 392 324 403T300 418Q294 420 295 435T302 450Q323 448 377 448Q408 448 465 454Q470 454 469 440T465 425Q434
421 418 414T377 384Q307 323 255 266Q251 262 258 254Q292 215 338 159T417 66Z" />
<glyph unicode="l" glyph-name="l" horiz-adv-x="444" d="M242 429Q234 427 222 425T204 420T190 415T177 406Q164 393 164 353V86Q164 32 218 32H314Q319 32 332 37T354 50Q374 70 395 114Q400 123 423 121Q427 121 430 119T432 112Q414 46 410 10Q410 6 405
2T395 -2Q339 -2 250 0T129 2L23 -1Q21 -1 20 4T19 15T23 21Q57 30 69 42Q89 62 89 84V354Q89 396 80 406Q77 409 75 411T70 415T66 418T60 420T54 422T46 425T36 428Q31 429 31 440T36 452Q50 452 73 451T112 450Q138 450 185 451T242 453Q249 453 248 442T242
429Z" />
<glyph unicode="m" glyph-name="m" horiz-adv-x="720" d="M365 -1Q356 -18 346 -17T328 1Q301 57 257 165T188 328Q181 345 179 328Q158 120 156 79Q156 60 176 40Q189 26 213 21Q218 20 219 9T213 -3Q200 -3 176 -1T136 1Q119 1 93 -1T55 -3Q49 -3 49 8T55 21Q87
28 99 37Q110 45 112 63Q143 291 143 367Q143 392 132 405Q118 421 74 431Q65 433 68 449Q70 455 73 455Q105 450 145 450T202 451T227 450Q337 174 365 106Q373 86 381 104Q401 145 418 184T444 244T473 315T503 389Q528 447 530 447H576Q594 447 666 456Q673
457 666 442Q663 435 660 434Q652 431 644 430T631 427T618 420Q607 412 607 388Q608 215 620 73Q621 57 636 45Q659 26 682 22Q687 20 688 9T682 -3Q673 -3 646 -1T600 1Q575 1 535 -1T489 -3Q483 -3 482 8T486 22Q492 24 496 25T503 28T508 31T512 34T516 38T521
43Q535 57 535 73Q536 114 527 323Q526 342 517 323Q374 19 365 -1Z" />
<glyph unicode="n" glyph-name="n" horiz-adv-x="631" d="M67 -3Q60 -3 61 8T67 21Q68 21 73 22T79 23T84 24T89 25T94 27T98 29T102 33T107 37Q120 51 122 81Q129 200 129 361Q129 365 129 371T129 380T129 385T127 391T123 397Q103 421 59 425Q52 425 52 437T59
449Q63 447 132 448T203 449Q207 449 209 447T215 441T219 434Q253 393 339 287T489 110Q490 109 492 106T497 100T501 97T505 99T507 110Q510 199 504 378Q504 387 498 394T483 407T465 415T447 421T435 425Q432 426 432 436T435 447Q453 447 479 445T523 443T565
445T606 447Q609 447 610 436T606 425Q587 422 571 409Q553 397 552 382Q549 331 548 282T546 201T546 110T547 13Q547 2 540 -6T522 -14Q496 -14 472 13Q349 164 204 329Q195 339 189 341T182 341T179 332Q173 142 175 73Q177 50 186 40Q199 25 221 21Q227 20
227 9T218 -3Q200 -3 178 -1T142 1Q127 1 104 -1T67 -3Z" />
<glyph unicode="o" glyph-name="o" horiz-adv-x="605" d="M297 424Q220 424 186 369T151 232Q151 140 194 81T319 22Q360 22 390 40T437 87T460 148T468 212Q468 297 425 360T297 424ZM66 217Q66 310 137 383T303 456Q405 456 478 389T552 221Q552 123 486 54T303
-15Q203 -15 135 52T66 217Z" />
<glyph unicode="p" glyph-name="p" horiz-adv-x="468" d="M189 395V81Q189 41 253 25Q258 24 258 11T253 -3Q249 -3 213 0T154 3Q131 3 94 0T50 -3Q46 -3 46 8T50 21Q76 25 95 44T114 85V350Q114 392 105 401Q96 411 90 414T63 424Q60 425 58 431T56 444T62 450Q76
450 99 449T137 448Q151 448 187 450T233 453Q317 453 377 421T438 325Q438 253 389 215Q362 194 313 187T234 184Q216 187 223 196Q227 201 232 200Q274 194 304 217Q332 238 344 260T356 332Q356 368 335 389T289 417T233 424Q189 424 189 395Z" />
<glyph unicode="q" glyph-name="q" horiz-adv-x="602" d="M288 430Q212 430 165 374T118 241Q118 146 168 79T304 11Q379 11 421 74T463 220Q463 307 417 368T288 430ZM240 -31Q211 -15 202 -13Q153 -1 94 64T34 207Q34 313 107 386T290 460Q388 460 467 401T547
253Q547 194 529 147T480 70T426 24T373 -7Q359 -15 379 -27Q488 -96 599 -138T790 -180Q843 -180 869 -179T944 -169T1033 -140T1116 -85Q1124 -79 1130 -85Q1138 -95 1131 -101Q1089 -141 1034 -168T927 -204T843 -216T787 -218Q569 -213 240 -31Z" />
<glyph unicode="r" glyph-name="r" horiz-adv-x="547" d="M157 258Q157 245 162 240T171 234T190 233Q233 233 263 253Q294 272 294 334Q294 424 204 424Q178 424 170 415T160 386Q156 294 157 258ZM157 189Q158 166 159 130T160 81Q161 41 225 25Q230 23 230
10T225 -4Q221 -4 186 -1T129 2Q104 2 64 -1T17 -4Q12 -4 12 8T17 21Q46 28 62 44Q82 64 82 85V352Q82 392 73 402Q63 413 57 416T30 425Q27 426 25 432T23 444T29 450Q43 450 72 449T120 447Q131 447 156 450T204 453Q282 453 330 422T378 335Q378 314 366 287T343
251Q323 231 303 222Q299 221 303 216Q315 198 337 160T379 95T427 41Q437 31 446 27T461 21T481 20T502 21Q505 21 506 17T505 8T500 1Q478 -14 451 -14Q372 -14 340 24Q328 39 318 53T302 77T281 114T252 161Q240 179 222 188Q196 201 167 203Q162 204 160 200T157
189Z" />
<glyph unicode="s" glyph-name="s" horiz-adv-x="373" d="M169 24Q247 24 247 99Q247 106 246 112T243 123T237 134T229 144T219 154T209 163T196 172T182 182T165 192T148 203Q53 263 53 340Q53 379 94 418T205 458Q226 458 245 455T278 447T296 441Q307 440
309 426Q320 373 320 352Q320 347 318 341T312 335Q308 335 299 340T288 352Q268 423 196 423Q127 423 127 364Q127 355 130 347T140 329T152 315T169 300T185 288T204 275T221 265Q331 194 331 120Q331 71 290 30T172 -11Q148 -11 128 -8T89 0T64 7T57 9T54 12L53
15Q47 28 39 60T30 110Q30 114 37 117T50 121Q52 121 61 106T82 73T118 39T169 24Z" />
<glyph unicode="t" glyph-name="t" horiz-adv-x="489" d="M377 406Q303 406 279 404Q268 403 268 374V81Q268 58 281 46Q301 28 333 22Q338 21 340 15T340 3T333 -3Q314 -3 282 0T228 4Q208 4 177 1T128 -3Q124 -3 122 2T121 14T128 22Q160 28 180 46Q193 58 193
81V374Q193 402 181 404T107 406Q73 406 57 378Q53 371 43 361T25 350Q11 350 23 376Q29 388 32 402T37 439T40 467Q42 482 53 482Q60 482 72 461Q79 447 116 447H387Q427 447 438 460Q450 472 462 472Q465 472 468 468T469 460Q460 442 452 366Q451 361 450 357T447
350T440 347Q431 348 424 370Q424 371 423 376T422 383T419 389T416 394T411 399T403 403T392 405T377 406Z" />
<glyph unicode="u" glyph-name="u" horiz-adv-x="563" d="M80 204V372Q80 392 74 403T62 417T41 425Q37 426 35 432T33 444T39 450Q55 450 82 449T126 448Q138 448 156 449T195 450Q201 450 201 439T195 426Q156 421 155 365Q154 338 154 303T154 231T155 185Q155
118 197 70T307 22Q371 22 401 62T431 193V350Q432 393 423 405T386 425Q379 427 379 439T387 451H459Q474 451 499 451T540 452Q546 452 545 442T540 430Q484 419 482 375Q475 298 475 217Q475 -13 294 -13Q193 -13 137 49T80 204Z" />
<glyph unicode="v" glyph-name="v" horiz-adv-x="537" d="M270 -15T267 -15T259 -3T244 34T231 68Q209 123 176 206T118 349Q101 389 88 404Q72 421 36 431Q33 432 31 437T29 447T34 452Q50 452 70 451T104 450Q128 450 167 451T223 452Q226 452 227 448T228 438T223
432Q201 430 192 424T182 404Q182 399 196 337Q210 283 277 136Q283 122 285 120T289 119T298 136Q300 141 385 345Q401 383 395 399Q387 422 354 429Q347 430 348 440T355 450H436Q451 450 474 451T513 452Q518 452 517 443T513 433Q476 424 467 414Q450 396 428
344Q409 299 366 205T298 51Q297 49 294 40T288 22T281 5T274 -9Z" />
<glyph unicode="w" glyph-name="w" horiz-adv-x="719" d="M621 362Q600 300 567 199T511 32Q506 18 490 -2T470 -22Q467 -22 458 -17T446 -4Q430 29 420 53T393 120T367 186Q367 187 366 189Q361 202 356 188Q342 150 319 98T280 2Q277 -5 266 -14T249 -23Q247
-23 236 -15T223 0L71 376Q63 395 54 403Q36 419 16 425Q9 427 9 437T16 448Q31 448 57 447T99 445Q118 445 147 446T191 448Q196 448 197 443T197 431T190 425Q172 424 159 418T146 405Q146 401 149 392T155 376L158 369Q169 341 193 278T234 173T273 82Q274 79
278 79T284 81Q295 108 311 151T338 222Q344 239 344 241T337 259Q331 274 320 308T297 364Q284 391 269 403Q244 423 223 425Q217 425 217 436T223 448Q234 448 257 447T294 445Q310 445 336 446T370 448Q377 448 377 438T370 425Q362 424 358 418T353 405Q353
394 378 329Q379 327 380 325L384 317Q385 317 386 323Q388 329 390 334Q414 393 414 405Q414 411 409 417T396 425Q393 426 392 431T391 442T396 448Q407 448 422 447T447 445Q461 445 482 446T514 448Q521 448 521 438T514 426Q512 426 505 425T496 423T488 421T481
418T475 415T468 411T463 406T456 399T450 390Q427 351 407 297Q402 284 402 279T405 266Q434 185 484 79Q485 77 488 78T492 83Q540 228 579 366Q583 380 583 405Q583 411 572 417T547 425Q540 426 540 437T547 448Q561 448 585 447T624 445Q637 445 658 446T694
448Q696 448 698 443T699 431T694 425Q664 418 652 411Q634 399 621 362Z" />
<glyph unicode="x" glyph-name="x" horiz-adv-x="543" d="M198 22Q206 22 206 10T198 -3Q176 -3 155 -1T119 2Q104 2 81 0T36 -3Q32 -3 30 3T29 15T36 22Q71 28 92 43T139 91L223 196Q242 219 230 235L121 388Q109 404 104 410T85 421T49 428Q44 428 43 434T43
447T49 453Q55 453 86 449T137 445Q160 445 195 447T238 449Q246 449 246 437T238 425Q219 424 211 417T202 400T207 380T218 361L274 283Q281 273 282 273T291 281L362 367Q374 381 367 401T340 424Q335 424 334 430T334 443T340 449Q351 449 367 448T398 446Q451
446 490 455Q495 456 497 449Q499 434 490 430Q464 424 449 414T415 381L313 258Q305 248 305 245T310 232L413 82Q449 29 496 22Q503 21 503 9T496 -3Q475 -3 449 -1T406 1Q382 1 344 -1T285 -3Q278 -3 278 9T285 22Q323 24 336 41T333 82L269 177Q261 186 257
184T245 171L167 70Q152 52 161 37T198 22Z" />
<glyph unicode="y" glyph-name="y" horiz-adv-x="494" d="M30 426Q26 426 24 432T22 444T27 450Q43 450 69 449T111 448T152 449T197 450Q202 450 202 440T197 428Q150 421 170 385Q186 357 196 341T219 309T240 279Q244 273 249 266T254 257T258 255T261 256T267
266T277 279Q323 343 343 382Q351 399 340 411T307 427Q301 428 301 439T309 451H381Q396 451 418 451T455 452Q461 452 460 442T455 431Q412 425 370 361Q355 335 334 305T294 246Q291 241 287 235T282 227T279 221T276 216T275 210T275 203T275 193Q276 176 276
137T275 82Q275 59 288 47Q308 29 340 23Q346 22 348 15T348 2T340 -4Q320 -4 290 -1T241 2Q220 2 186 -1T134 -4Q130 -4 128 2T126 15T134 23Q167 29 187 47Q200 59 200 82V193Q200 211 188 235Q175 259 162 277T131 319T101 359Q99 362 91 375T76 398T57 416T30
426Z" />
<glyph unicode="z" glyph-name="z" horiz-adv-x="466" d="M324 39Q386 43 410 99Q414 109 446 113Q449 113 450 111T451 104Q436 34 423 9Q422 8 421 5T420 1T417 -2T413 -3Q377 -3 256 -2T127 -2H34Q28 -2 31 8L34 17Q37 24 71 74Q235 299 305 407Q311 417 294
418Q170 421 130 418Q94 415 79 373Q77 367 65 358T46 348Q36 348 44 374Q66 448 68 453Q74 465 84 465Q89 465 101 455Q108 450 142 450Q297 448 416 451Q420 451 423 446T424 439Q418 432 382 382Q248 203 155 59Q152 54 154 47T161 39Q223 31 324 39Z" />
<glyph unicode="{" glyph-name="braceleft" horiz-adv-x="373" d="M90 279Q121 271 158 231T196 147Q196 119 190 64T183 -26Q183 -77 220 -102T312 -127Q338 -127 338 -139Q338 -154 320 -154Q240 -154 179 -120T118 -21Q118 15 124 71T131 157Q131 238 36 273Q25
277 25 282Q25 285 26 286T31 287T36 288Q131 323 131 404Q131 434 125 490T118 582Q118 647 179 681T320 715Q338 715 338 700Q338 688 312 688Q258 688 221 663T183 587Q183 552 189 497T196 414Q196 369 162 334T88 283Q84 281 90 279Z" />
<glyph unicode="|" glyph-name="bar" horiz-adv-x="260" d="M100 676Q100 690 118 698T146 707Q160 707 160 694V-265Q160 -278 143 -283T112 -289Q107 -289 104 -285T100 -275V676Z" />
<glyph unicode="}" glyph-name="braceright" horiz-adv-x="373" d="M283 279Q288 281 285 283Q246 299 212 334T177 414Q177 442 183 497T190 587Q190 638 153 663T61 688Q35 688 35 700Q35 715 53 715Q133 715 194 681T255 582Q255 546 249 490T242 404Q242 323
337 288Q338 287 341 287T346 286T348 282Q348 277 337 273Q242 238 242 157Q242 127 248 71T255 -21Q255 -86 194 -120T53 -154Q35 -154 35 -139Q35 -127 61 -127Q115 -127 152 -102T190 -26Q190 9 184 64T177 147Q177 191 214 231T283 279Z" />
<glyph unicode="~" glyph-name="asciitilde" horiz-adv-x="500" d="M50 279Q68 313 106 347T175 381Q196 381 249 357T337 333Q358 333 391 348T437 380Q442 387 448 373Q452 365 450 362Q435 334 396 297T325 260Q302 260 244 284T158 308Q141 308 109 292T65
261Q63 259 59 262T52 270T50 279Z" />
<glyph unicode="&#xa0;" glyph-name="uni00A0" horiz-adv-x="200" />
<glyph unicode="&#xa1;" glyph-name="exclamdown" horiz-adv-x="282" d="M177 374T152 374T110 391T92 434T109 476T152 494T194 477T212 434T195 392ZM152 -180Q127 -179 114 -158T101 -106Q101 -66 124 205Q126 228 133 245T152 263Q159 263 165 246T174 211Q201
-50 201 -108Q201 -138 189 -159T152 -180Z" />
<glyph unicode="&#xa2;" glyph-name="cent" horiz-adv-x="412" d="M194 -12Q129 -1 82 57T35 188Q35 274 92 339T238 412L243 462Q245 479 265 479Q271 479 275 474T278 462L273 413Q344 409 380 365Q395 346 360 323Q352 318 341 320T326 329Q303 370 269 379L235
46Q240 45 250 45Q337 45 365 88Q370 93 375 93T385 87T386 77Q333 -11 228 -14L223 -65Q221 -80 204 -80Q197 -80 192 -76T188 -65L194 -12ZM200 53L235 384H233Q176 384 139 334T102 222Q102 158 128 114T200 53Z" />
<glyph unicode="&#xa3;" glyph-name="sterling" horiz-adv-x="490" d="M344 629Q448 630 448 547Q448 528 433 510T406 491Q400 491 396 495T394 505Q395 508 395 527Q394 552 373 576T326 600Q277 600 248 532T218 342L351 351Q357 351 361 347T364 337Q351 313
333 313L216 305Q209 244 183 182T135 102Q132 100 133 97T139 93Q202 93 266 63T375 32Q398 31 416 47T434 87Q434 97 428 112T421 138Q421 143 421 145T422 151T425 156T430 158Q451 156 464 141T477 105Q477 48 431 6T324 -36Q278 -36 246 -22T164 26Q124 55
100 55Q95 55 81 40T56 6Q45 -14 20 -14Q7 -14 -1 -5T-10 17Q-10 34 20 59T86 91Q91 92 97 103Q124 151 129 299L45 293Q40 293 36 296T31 305Q31 312 38 321T55 331L130 336V341Q130 452 186 540T344 629Z" />
<glyph unicode="&#xa4;" glyph-name="currency" horiz-adv-x="483" d="M41 434Q32 444 49 461Q67 479 77 469L122 424Q176 465 241 465Q309 465 359 424L405 470Q415 480 434 461Q450 444 439 433L394 388Q433 337 433 270T394 152L441 105Q450 96 433 78Q415
60 405 70L359 116Q309 75 241 75T123 116L76 70Q66 60 49 77Q31 95 41 105L88 152Q49 203 49 270T88 387L41 434ZM300 415T241 415T141 373T99 270T140 168T241 125T341 167T383 270T342 372Z" />
<glyph unicode="&#xa5;" glyph-name="yen" horiz-adv-x="619" d="M127 522Q110 548 101 561T72 595T38 620Q5 630 5 642Q5 653 34 653Q47 653 86 652T151 650Q168 650 195 651T231 652Q260 652 260 641Q260 632 227 621Q217 618 210 612T199 593T208 560L301 395Q311
377 316 370T326 358T336 358T346 370T362 395Q418 477 445 534Q457 560 450 587T422 620Q389 629 389 640T418 651Q433 651 456 651T493 650Q513 650 546 651T589 653Q618 653 618 642Q618 629 585 622Q545 614 485 526L373 346Q358 324 355 315H477Q483 315 487
311T490 301Q479 280 459 280H350V256V232H476Q482 232 486 228T489 218Q478 197 458 197H350V108Q350 38 428 24Q461 18 461 6Q461 -5 432 -5Q404 -5 371 -3T315 0Q290 0 252 -2T187 -5Q158 -5 158 6Q158 18 191 24Q269 38 269 108L270 197H144Q139 197 135 200T130
209Q130 216 137 224T154 232H270V256Q270 266 268 280H144Q139 280 135 284T130 292Q130 299 137 307T154 315H260Q253 328 251 330L127 522Z" />
<glyph unicode="&#xa6;" glyph-name="brokenbar" horiz-adv-x="260" d="M112 276Q108 276 104 283T100 299V674Q100 688 118 696T146 705Q160 705 160 692V297Q160 290 141 283T112 276ZM146 179Q151 179 155 172T160 157V-266Q160 -279 143 -284T112 -290Q107
-290 104 -286T100 -276V156Q100 163 119 171T146 179Z" />
<glyph unicode="&#xa7;" glyph-name="section" horiz-adv-x="400" d="M217 305Q129 395 106 433Q98 447 94 458Q92 462 89 462T84 458Q73 416 73 385Q73 335 94 294T163 204Q251 114 274 76Q282 62 286 51Q288 47 291 47T296 51Q307 93 307 124Q307 174 286 215T217
305ZM229 640Q278 640 299 621Q311 611 311 603Q311 597 303 583T285 560Q272 550 260 562Q222 596 198 596Q170 596 154 578T137 533Q137 478 241 385Q301 331 323 280T346 159Q346 108 335 73T296 -11Q248 -94 177 -137Q159 -148 123 -148Q97 -148 79 -139T61
-116Q61 -85 89 -64Q97 -59 111 -70Q138 -94 180 -94Q232 -94 232 -12Q232 -2 229 9T218 33T204 55T184 79T164 102T140 126T118 149Q24 245 24 329Q24 391 40 432T90 513Q103 562 141 601T229 640Z" />
<glyph unicode="&#xa8;" glyph-name="dieresis" horiz-adv-x="0" d="M-108 594T-89 594T-55 579T-39 544T-54 510T-89 494T-123 509T-139 544T-124 578ZM-285 594T-266 594T-232 579T-216 544T-231 510T-266 494T-300 509T-316 544T-301 578Z" />
<glyph unicode="&#xa9;" glyph-name="copyright" horiz-adv-x="665" d="M455 590T346 590T160 513T83 327Q83 217 159 138T345 58Q455 58 532 137T609 327Q609 436 532 513ZM221 630T346 630T560 541T649 327T560 113T345 24T132 113T43 327T132 541ZM462 225Q470
240 479 240Q484 240 484 227Q484 218 477 200T464 176Q461 173 443 164Q422 154 359 154Q289 154 239 207T188 328Q188 400 245 447T380 494Q406 494 433 488Q437 486 452 483T471 478T477 464Q480 436 478 409Q478 406 475 402T468 398Q462 398 456 413Q448 435
426 449T371 464Q321 464 290 426T258 331Q258 272 289 228T376 184Q442 184 462 225Z" />
<glyph unicode="&#xaa;" glyph-name="ordfeminine" horiz-adv-x="270" d="M49 196H255Q261 196 265 192T268 182Q257 161 237 161H39Q34 161 30 164T25 173Q25 180 32 188T49 196ZM80 342Q80 326 90 317T112 308Q128 308 152 327Q159 333 159 350L160 379Q160
394 145 390Q80 372 80 342ZM219 268Q203 268 191 276T172 291T164 299Q161 299 152 292T125 276T84 268Q64 268 45 288T25 327Q25 347 32 359T63 380L142 408Q155 412 157 416T160 432V455Q160 471 150 481T123 491Q88 491 80 478Q76 469 78 453Q79 446 33 434Q30
433 29 436T29 444Q39 470 54 482Q71 497 101 510T154 524Q178 524 197 508T216 471L213 347Q213 308 234 308Q250 308 255 316Q260 323 267 309Q269 304 268 301Q267 299 261 292T242 276T219 268Z" />
<glyph unicode="&#xab;" glyph-name="guillemotleft" horiz-adv-x="676" d="M419 217Q413 212 413 210T419 203Q510 133 571 40Q576 32 573 25T563 19Q550 22 535 37Q435 134 330 182Q320 186 315 200T315 218Q461 305 541 382Q556 397 569 400Q574 401 575 394Q577
385 571 376Q545 337 515 304T467 256T419 217ZM207 217Q201 212 201 210T207 203Q298 133 359 40Q364 32 361 25T351 19Q338 22 323 37Q223 134 118 182Q108 186 103 200T103 218Q249 305 329 382Q344 397 357 400Q362 401 363 394Q365 385 359 376Q333 337 303
304T255 256T207 217Z" />
<glyph unicode="&#xac;" glyph-name="logicalnot" horiz-adv-x="600" d="M64 322Q59 322 55 326T50 334Q50 339 51 345T54 361T61 376T74 382H537Q542 382 546 378T550 368V67Q550 54 533 49T502 43Q497 43 494 47T490 57V304Q490 322 476 322H64Z" />
<glyph unicode="&#xad;" glyph-name="uni00AD" horiz-adv-x="274" d="M39 170Q29 169 29 176Q34 229 45 230Q173 248 237 255Q245 255 245 249Q241 197 224 195Q107 177 39 170Z" />
<glyph unicode="&#xae;" glyph-name="registered" horiz-adv-x="337" d="M196 630T160 630T99 605T73 543T98 482T160 456T221 481T247 543T222 604ZM116 650T160 650T235 619T267 543T236 468T160 436T85 467T53 543T84 618ZM176 567Q176 575 171 582T159 589Q148
589 148 580V557Q148 551 155 551Q163 551 169 555T176 567ZM107 488Q106 488 106 492T107 497Q123 503 123 509V571Q123 580 111 584Q110 584 109 587T108 593T111 597Q137 603 159 603Q178 603 189 595T201 572Q201 552 182 547Q181 547 181 545T182 541Q200
506 208 500Q219 489 219 488Q219 485 207 485Q193 485 180 498Q171 510 164 528Q162 534 154 534Q148 534 148 531V509Q148 501 163 498Q164 497 164 493T163 488H107Z" />
<glyph unicode="&#xaf;" glyph-name="overscore" horiz-adv-x="250" d="M-466 128H-243Q-237 128 -233 124T-230 114Q-235 102 -237 96T-246 84T-261 78H-476Q-482 78 -486 81T-490 90Q-490 100 -484 114T-466 128Z" />
<glyph unicode="0;" glyph-name="degree" horiz-adv-x="290" d="M97 645T145 645T229 611T265 528T229 441T145 402T62 441T25 528T61 610ZM72 523Q72 493 93 471T145 449T196 471T218 523Q218 554 197 575T145 597T94 576T72 523Z" />
<glyph unicode="1;" glyph-name="plusminus" d="M64 38Q59 38 55 41T50 50Q50 60 56 74T74 88H527Q533 88 537 84T540 74Q536 62 534 56T525 44T509 38H64ZM320 407Q320 402 320 402T324 401H527Q533 401 537 397T540 387Q536 375 534 369T525 357T509 351H324Q320
351 320 347V145Q320 134 306 128T282 121Q277 121 274 125T270 135V346Q270 351 266 351H64Q59 351 55 354T50 363Q50 373 56 387T74 401H263Q270 401 270 409V580Q270 592 284 601T306 611Q320 611 320 598V407Z" />
<glyph unicode="2;" glyph-name="uni00B2" horiz-adv-x="300" d="M42 678Q38 670 33 672Q26 675 26 683Q26 704 61 737T143 770Q181 770 207 743T234 677Q234 670 233 664T230 651T226 640T220 629T214 619T207 608T200 598Q190 583 168 561T124 519T101 498Q98
495 103 494T113 492Q122 492 130 492T152 492T182 492Q204 492 224 505T256 542Q260 552 271 550Q277 550 274 541Q254 485 247 450Q246 444 244 441T240 437T235 437Q184 440 151 440Q79 440 28 438Q25 437 24 442Q22 448 28 454Q35 461 49 475T67 494Q68 495
80 506T102 528T127 554T152 586T170 618T178 651Q179 679 162 697T121 716Q94 716 79 709T42 678Z" />
<glyph unicode="3;" glyph-name="uni00B3" horiz-adv-x="300" d="M187 686Q187 701 170 712T138 723Q102 721 68 693Q61 686 58 687Q49 692 52 698Q89 770 155 770Q243 768 243 699Q243 662 184 632Q181 630 181 629T184 627Q212 625 232 607T253 561Q253
505 206 470T112 434Q76 434 57 446Q46 453 46 467Q46 474 52 484T64 495Q72 495 77 490Q110 468 142 468Q153 468 164 470T188 488T201 530Q201 557 182 576T134 595Q123 595 97 588Q94 587 90 588T83 593T83 599Q92 608 110 614T132 624Q137 627 146 633T160
642T170 650T179 660T184 671T187 686Z" />
<glyph unicode="4;" glyph-name="acute" horiz-adv-x="382" d="M183 471Q167 449 156 449Q143 449 143 462Q143 472 178 536T236 637Q253 664 287 664Q300 664 310 655T321 636Q321 628 305 612T253 557T183 471Z" />
<glyph unicode="5;" glyph-name="uni00B5" horiz-adv-x="510" d="M420 64Q465 64 485 104Q488 110 496 108T504 100Q506 66 489 39Q468 5 451 -5T406 -15Q382 -15 368 -2T339 48Q330 69 326 114Q320 99 305 73T261 17T210 -13Q177 -13 156 -2T98 38Q94 41
88 47T78 58T70 62Q64 62 62 49T60 15T65 -30T72 -78Q78 -112 94 -152T123 -219T137 -254Q137 -285 109 -285Q65 -285 46 -234Q40 -217 36 -141T31 0Q31 7 34 40T38 92Q38 107 35 208T31 332Q31 368 43 393T83 418Q122 418 122 343Q122 322 107 237T91 132Q91 109
115 80T169 50Q241 50 279 122Q297 157 306 195T316 257T317 332Q317 365 329 390T366 415Q405 415 405 352Q405 336 381 264T357 162Q357 128 373 96T420 64Z" />
<glyph unicode="6;" glyph-name="paragraph" horiz-adv-x="586" d="M268 -218Q268 -236 281 -248T312 -262Q348 -263 371 -240T394 -180V94Q394 119 381 119Q297 119 223 146T98 231T47 366Q47 433 81 487T170 575T294 627T433 645Q485 645 542 643Q557 642
557 622Q557 615 551 608T539 600Q536 600 503 603T467 607Q460 607 455 602T449 589V-166Q449 -203 410 -245T320 -287Q284 -287 258 -264T232 -206Q232 -178 252 -159T302 -140Q323 -140 339 -152T356 -184Q356 -200 345 -213T321 -227Q310 -227 282 -211Q269
-206 268 -218Z" />
<glyph unicode="7;" glyph-name="middot" horiz-adv-x="200" d="M77 260T100 260T139 244T155 205T139 166T100 150T61 166T45 205T61 244Z" />
<glyph unicode="8;" glyph-name="cedilla" horiz-adv-x="252" d="M95 -129Q89 -132 81 -123T80 -104L168 8H199L160 -43Q156 -50 159 -55T167 -63Q193 -74 210 -94T228 -139Q228 -193 183 -233T103 -274Q86 -274 79 -262Q70 -246 75 -224Q76 -219 80 -216T90
-215Q115 -225 139 -225Q178 -225 178 -180Q178 -131 111 -127Q100 -127 95 -129Z" />
<glyph unicode="9;" glyph-name="uni00B9" horiz-adv-x="300" d="M171 782Q179 786 183 782T187 770Q185 754 183 700Q182 576 183 510Q184 481 191 475T233 464Q245 462 245 451T233 439Q201 439 183 441T151 444T119 442T69 439Q63 439 60 445T58 457T69
464Q86 465 95 467T114 480T123 510V663Q123 691 69 710Q57 715 58 725T68 737Q86 739 104 745T134 759T157 773T171 782Z" />
<glyph unicode="a;" glyph-name="ordmasculine" horiz-adv-x="309" d="M49 196H271Q277 196 281 192T284 182Q273 161 253 161H39Q34 161 30 164T25 173Q25 180 32 188T49 196ZM149 491Q117 491 102 466T86 402Q86 360 107 330T160 299Q191 299 207 324T223
389Q223 430 203 460T149 491ZM160 524Q209 524 246 488T284 404Q284 348 248 308T148 268Q97 268 61 301T25 388Q25 444 65 484T160 524Z" />
<glyph unicode="b;" glyph-name="guillemotright" horiz-adv-x="676" d="M257 217Q227 241 209 255T161 303T105 376Q95 391 102 399Q104 401 107 400Q117 398 135 382Q215 305 361 218Q367 214 362 200T346 182Q241 134 141 37Q123 21 113 19Q106 17 103
24T105 40Q166 133 257 203Q260 205 261 206T263 210T262 213T257 217ZM469 217Q439 241 421 255T373 303T317 376Q307 391 314 399Q316 401 319 400Q329 398 347 382Q427 305 573 218Q579 214 574 200T558 182Q453 134 353 37Q335 21 325 19Q318 17 315 24T317
40Q378 133 469 203Q472 205 473 206T475 210T474 213T469 217Z" />
<glyph unicode="c;" glyph-name="onequarter" horiz-adv-x="641" d="M121 -11L533 638Q544 655 572 655Q578 655 583 649T585 638L173 -11Q164 -26 137 -26Q130 -26 124 -21T121 -11ZM502 148Q510 148 510 153V264Q510 266 508 266T504 265Q465 222 411 153Q408
148 411 148H502ZM349 109Q363 127 377 146Q396 170 427 207T480 273Q492 288 538 338Q549 349 553 350Q556 351 558 348T560 342Q560 225 562 151Q562 147 565 147Q584 146 624 148Q632 148 631 142Q626 107 618 107H570Q562 104 562 103V19Q562 9 544 0T519 -10Q510
-10 510 -2V100Q510 105 501 105Q475 105 430 103T355 101Q352 101 350 104T349 109ZM154 626Q162 630 166 626T170 614Q166 586 166 544Q165 420 166 354Q167 326 174 320T216 308Q224 307 227 301T227 289T216 283Q184 283 166 285T134 288T102 286T52 283Q46
283 43 289T42 301T52 308Q69 309 78 311T97 324T106 354V507Q106 535 52 554Q40 559 41 569T51 581Q69 583 87 589T117 603T140 617T154 626Z" />
<glyph unicode="d;" glyph-name="onehalf" horiz-adv-x="699" d="M443 232Q439 224 434 226Q427 229 427 237Q427 258 462 291T544 324Q582 324 608 297T635 231Q635 224 634 218T631 205T627 194T621 183T615 173T608 162T601 152Q591 137 569 115T525 73T502
52Q499 49 507 47Q511 46 514 46H583Q605 46 625 59T657 96Q661 106 672 104Q678 104 675 95Q655 39 648 4Q647 -2 645 -5T641 -9T636 -9Q585 -6 552 -6Q480 -6 429 -8Q426 -9 425 -4Q423 2 429 8Q436 15 450 29T468 48Q469 49 481 60T503 82T528 108T553 140T571
172T579 205Q580 233 563 251T522 270Q495 270 480 263T443 232ZM121 -11L533 638Q544 655 572 655Q578 655 583 649T585 638L173 -11Q164 -26 137 -26Q130 -26 124 -21T121 -11ZM154 626Q162 630 166 626T170 614Q166 586 166 544Q165 420 166 354Q167 326 174
320T216 308Q224 307 227 301T227 289T216 283Q184 283 166 285T134 288T102 286T52 283Q46 283 43 289T42 301T52 308Q69 309 78 311T97 324T106 354V507Q106 535 52 554Q40 559 41 569T51 581Q69 583 87 589T117 603T140 617T154 626Z" />
<glyph unicode="e;" glyph-name="threequarters" horiz-adv-x="641" d="M196 548Q196 563 179 574T147 585Q111 583 77 555Q70 548 67 549Q58 554 61 560Q98 632 164 632Q252 630 252 561Q252 524 193 494Q190 492 190 491T193 489Q225 488 243 462T262 401Q262
345 215 310T121 274Q83 274 64 286Q53 293 53 307Q53 314 59 324T71 335Q79 335 84 330Q117 308 151 308Q168 308 189 325T210 381Q210 411 191 434T143 457Q132 457 106 450Q103 449 99 450T92 455T92 461Q101 470 119 476T141 486Q146 489 155 495T169 504T179
512T188 522T193 533T196 548ZM121 -11L533 638Q544 655 572 655Q578 655 583 649T585 638L173 -11Q164 -26 137 -26Q130 -26 124 -21T121 -11ZM502 148Q510 148 510 153V264Q510 266 508 266T504 265Q465 222 411 153Q408 148 411 148H502ZM349 109Q363 127 377
146Q396 170 427 207T480 273Q492 288 538 338Q549 349 553 350Q556 351 558 348T560 342Q560 225 562 151Q562 147 565 147Q584 146 624 148Q632 148 631 142Q626 107 618 107H570Q562 104 562 103V19Q562 9 544 0T519 -10Q510 -10 510 -2V100Q510 105 501 105Q475
105 430 103T355 101Q352 101 350 104T349 109Z" />
<glyph unicode="f;" glyph-name="questiondown" horiz-adv-x="355" d="M258 374T233 374T191 391T173 434T190 476T233 494T275 477T293 434T276 392ZM273 -181Q215 -181 165 -131Q124 -90 96 -32T68 65Q68 99 81 125T112 160Q167 190 202 213Q222 226 226
237T232 276Q232 299 247 299Q252 299 259 291T269 270Q282 220 285 187Q287 162 263 142T184 93Q160 81 142 62T123 22Q123 -29 149 -60T224 -93Q234 -93 248 -91T271 -89Q287 -89 300 -107T313 -145Q313 -159 300 -170T273 -181Z" />
<glyph unicode="0;" glyph-name="Agrave" horiz-adv-x="684" d="M432 705Q357 726 244 754Q212 761 212 780Q213 810 247 826Q270 837 299 821Q365 787 463 725Q471 720 471 712T466 703Q454 700 432 705ZM178 102Q170 76 187 57T234 30Q267 21 267 10T238
-1Q233 -1 195 0T132 1Q111 1 77 -2T27 -5Q-2 -5 -2 8Q-2 20 31 31Q91 49 117 108Q213 328 304 578Q305 581 307 586T311 597T314 608Q315 612 315 619T316 631T318 636Q345 645 354 651Q360 655 364 661T370 672T375 676Q380 676 385 662Q459 429 563 128Q582
73 605 54T664 28Q697 22 697 5Q697 -5 668 -5Q657 -5 620 -2T559 1Q529 2 482 1T430 0Q401 0 401 11T434 31Q472 41 480 56T481 105Q464 186 452 233Q449 244 424 244H233Q221 244 216 226T203 184T190 141T178 102ZM333 542Q322 513 290 429T243 302Q239 292
243 290T262 287H417Q428 287 430 289T429 302Q382 443 350 541Q346 554 344 557T339 557T333 542Z" />
<glyph unicode="1;" glyph-name="Aacute" horiz-adv-x="684" d="M276 705Q254 700 242 703Q236 704 236 712T245 725Q343 787 409 821Q438 837 461 826Q495 810 496 780Q496 761 464 754Q351 726 276 705ZM178 102Q170 76 187 57T234 30Q267 21 267 10T238
-1Q233 -1 195 0T132 1Q111 1 77 -2T27 -5Q-2 -5 -2 8Q-2 20 31 31Q91 49 117 108Q213 328 304 578Q305 581 307 586T311 597T314 608Q315 612 315 619T316 631T318 636Q345 645 354 651Q360 655 364 661T370 672T375 676Q380 676 385 662Q459 429 563 128Q582
73 605 54T664 28Q697 22 697 5Q697 -5 668 -5Q657 -5 620 -2T559 1Q529 2 482 1T430 0Q401 0 401 11T434 31Q472 41 480 56T481 105Q464 186 452 233Q449 244 424 244H233Q221 244 216 226T203 184T190 141T178 102ZM333 542Q322 513 290 429T243 302Q239 292
243 290T262 287H417Q428 287 430 289T429 302Q382 443 350 541Q346 554 344 557T339 557T333 542Z" />
<glyph unicode="2;" glyph-name="Acircumflex" horiz-adv-x="684" d="M373 763Q365 768 363 768T353 763Q286 725 274 718Q243 700 222 700Q211 700 208 707T214 722Q262 762 322 810Q324 811 327 814T332 818T337 821T341 824T344 827T348 829T351 830T355
831T359 832T363 832Q370 832 376 829T386 824T404 810Q464 762 512 722Q521 714 518 707T504 699Q495 699 469 714Q445 727 416 741T373 763ZM178 102Q170 76 187 57T234 30Q267 21 267 10T238 -1Q233 -1 195 0T132 1Q111 1 77 -2T27 -5Q-2 -5 -2 8Q-2 20 31 31Q91
49 117 108Q213 328 304 578Q305 581 307 586T311 597T314 608Q315 612 315 619T316 631T318 636Q345 645 354 651Q360 655 364 661T370 672T375 676Q380 676 385 662Q459 429 563 128Q582 73 605 54T664 28Q697 22 697 5Q697 -5 668 -5Q657 -5 620 -2T559 1Q529
2 482 1T430 0Q401 0 401 11T434 31Q472 41 480 56T481 105Q464 186 452 233Q449 244 424 244H233Q221 244 216 226T203 184T190 141T178 102ZM333 542Q322 513 290 429T243 302Q239 292 243 290T262 287H417Q428 287 430 289T429 302Q382 443 350 541Q346 554
344 557T339 557T333 542Z" />
<glyph unicode="3;" glyph-name="Atilde" horiz-adv-x="684" d="M203 738Q222 765 250 790T290 815Q302 815 368 811T447 807Q459 807 475 817T504 844Q506 847 511 844T521 835T523 826Q507 803 479 774T441 744Q428 744 360 748T279 752Q268 752 252 743T224
720Q220 716 210 725T203 738ZM178 102Q170 76 187 57T234 30Q267 21 267 10T238 -1Q233 -1 195 0T132 1Q111 1 77 -2T27 -5Q-2 -5 -2 8Q-2 20 31 31Q91 49 117 108Q213 328 304 578Q305 581 307 586T311 597T314 608Q315 612 315 619T316 631T318 636Q345 645
354 651Q360 655 364 661T370 672T375 676Q380 676 385 662Q459 429 563 128Q582 73 605 54T664 28Q697 22 697 5Q697 -5 668 -5Q657 -5 620 -2T559 1Q529 2 482 1T430 0Q401 0 401 11T434 31Q472 41 480 56T481 105Q464 186 452 233Q449 244 424 244H233Q221 244
216 226T203 184T190 141T178 102ZM333 542Q322 513 290 429T243 302Q239 292 243 290T262 287H417Q428 287 430 289T429 302Q382 443 350 541Q346 554 344 557T339 557T333 542Z" />
<glyph unicode="4;" glyph-name="Adieresis" horiz-adv-x="684" d="M435 810T457 810T496 794T513 755T497 716T458 700T419 716T403 755T419 794ZM245 810T267 810T306 794T323 755T307 716T268 700T229 716T213 755T229 794ZM178 102Q170 76 187 57T234
30Q267 21 267 10T238 -1Q233 -1 195 0T132 1Q111 1 77 -2T27 -5Q-2 -5 -2 8Q-2 20 31 31Q91 49 117 108Q213 328 304 578Q305 581 307 586T311 597T314 608Q315 612 315 619T316 631T318 636Q345 645 354 651Q360 655 364 661T370 672T375 676Q380 676 385 662Q459
429 563 128Q582 73 605 54T664 28Q697 22 697 5Q697 -5 668 -5Q657 -5 620 -2T559 1Q529 2 482 1T430 0Q401 0 401 11T434 31Q472 41 480 56T481 105Q464 186 452 233Q449 244 424 244H233Q221 244 216 226T203 184T190 141T178 102ZM333 542Q322 513 290 429T243
302Q239 292 243 290T262 287H417Q428 287 430 289T429 302Q382 443 350 541Q346 554 344 557T339 557T333 542Z" />
<glyph unicode="5;" glyph-name="Aring" horiz-adv-x="684" d="M364 864Q401 864 425 843T449 787Q449 750 422 725T356 700Q321 700 296 721T271 779T298 839T364 864ZM309 782Q309 758 325 740T365 722Q385 722 398 740T411 782Q411 806 396 823T357 841Q335
841 322 823T309 782ZM178 102Q170 76 187 57T234 30Q267 21 267 10T238 -1Q233 -1 195 0T132 1Q111 1 77 -2T27 -5Q-2 -5 -2 8Q-2 20 31 31Q91 49 117 108Q213 328 304 578Q305 581 307 586T311 597T314 608Q315 612 315 619T316 631T318 636Q345 645 354 651Q360
655 364 661T370 672T375 676Q380 676 385 662Q459 429 563 128Q582 73 605 54T664 28Q697 22 697 5Q697 -5 668 -5Q657 -5 620 -2T559 1Q529 2 482 1T430 0Q401 0 401 11T434 31Q472 41 480 56T481 105Q464 186 452 233Q449 244 424 244H233Q221 244 216 226T203
184T190 141T178 102ZM333 542Q322 513 290 429T243 302Q239 292 243 290T262 287H417Q428 287 430 289T429 302Q382 443 350 541Q346 554 344 557T339 557T333 542Z" />
<glyph unicode="6;" glyph-name="AE" horiz-adv-x="866" d="M454 267Q454 276 450 280T432 285H291Q273 285 261 262Q225 201 179 112Q148 51 235 30Q268 21 268 10T239 -1Q235 -1 196 0T132 1Q111 1 75 -2T24 -5Q-5 -5 -5 6Q-5 18 28 28Q53 35 82 62T132
126Q168 188 265 354T405 594Q409 600 404 605T388 611L300 626Q292 629 290 635T291 646T300 651Q318 651 378 650T475 648Q527 648 599 649T723 652T784 653Q801 653 802 644Q813 586 814 541Q814 532 800 532Q792 532 789 542Q777 578 766 591Q742 618 699 618H568Q560
618 553 610T543 592Q537 563 535 520Q532 448 532 354Q532 332 542 332Q598 332 646 334Q678 336 690 347Q701 357 707 371Q709 375 715 381T725 388Q729 388 734 383T738 372Q733 322 738 240Q738 223 729 223Q713 223 706 246Q694 283 659 285Q617 287 556 287Q531
287 532 262Q532 198 535 113Q536 79 551 57T598 35H702Q710 35 740 41T778 53Q797 68 820 116Q825 126 834 126Q840 125 844 122T847 114Q841 56 830 12Q826 -5 816 -5Q754 -5 649 -2T492 1Q471 1 438 -2T377 -5Q348 -5 348 6Q348 18 381 24Q421 31 439 47T456
99Q454 209 454 267ZM438 581Q375 472 302 343Q296 333 298 331T314 328H438Q450 328 452 330T454 343V580Q454 598 451 598Q447 598 438 581Z" />
<glyph unicode="7;" glyph-name="Ccedilla" horiz-adv-x="665" d="M410 663Q480 663 516 651Q526 648 555 642T592 633Q603 630 605 603Q612 549 613 494Q614 486 612 478T602 471Q594 472 591 478T585 502Q580 546 541 581Q528 594 487 609T386 624Q281 624
214 537T146 334Q146 211 218 118T403 25Q461 25 527 62Q573 89 586 137Q588 142 593 146T604 152T611 156Q616 159 618 149Q621 139 619 130Q616 111 603 78T578 27Q576 24 573 22T565 18T552 12T537 5Q509 -8 429 -14L402 -54Q395 -63 412 -70Q438 -81 458 -104T478
-159Q478 -206 433 -240T349 -275Q320 -275 311 -262Q300 -248 309 -221Q314 -205 323 -210Q351 -222 383 -222Q399 -222 412 -213T425 -183Q425 -134 378 -131Q356 -131 351 -132Q335 -134 328 -122Q322 -112 332 -100L395 -15H369Q237 -15 144 80T50 310Q50 457
156 560T410 663Z" />
<glyph unicode="8;" glyph-name="Egrave" horiz-adv-x="541" d="M341 705Q266 726 153 754Q121 761 121 780Q122 810 156 826Q179 837 208 821Q274 787 372 725Q380 720 380 712T375 703Q363 700 341 705ZM216 374Q216 352 226 352H330Q358 352 374 367Q385
377 391 391Q393 395 399 401T409 408Q413 408 418 403T422 392Q418 345 422 269Q422 252 413 252Q397 252 390 275Q379 310 343 314Q280 323 240 316Q215 311 216 291Q216 266 219 113Q220 74 234 55T282 35H386Q394 35 424 41T462 53Q481 68 504 116Q509 127
518 126Q524 126 528 123T531 114Q525 56 514 12Q510 -5 500 -5Q433 -5 327 -2T173 1Q152 1 119 -2T58 -5Q29 -5 29 6Q29 18 62 24Q101 31 118 47T136 99V549Q136 584 122 599T69 622Q36 628 36 642Q36 653 65 653Q88 653 168 651Q237 649 350 651T468 653Q485
653 486 644Q497 586 498 541Q498 532 484 532Q476 532 473 542Q461 578 450 591Q426 618 383 618H252Q243 618 232 609T220 588Q216 556 216 374Z" />
<glyph unicode="9;" glyph-name="Eacute" horiz-adv-x="541" d="M185 705Q163 700 151 703Q145 704 145 712T154 725Q252 787 318 821Q347 837 370 826Q404 810 405 780Q405 761 373 754Q260 726 185 705ZM216 374Q216 352 226 352H330Q358 352 374 367Q385
377 391 391Q393 395 399 401T409 408Q413 408 418 403T422 392Q418 345 422 269Q422 252 413 252Q397 252 390 275Q379 310 343 314Q280 323 240 316Q215 311 216 291Q216 266 219 113Q220 74 234 55T282 35H386Q394 35 424 41T462 53Q481 68 504 116Q509 127
518 126Q524 126 528 123T531 114Q525 56 514 12Q510 -5 500 -5Q433 -5 327 -2T173 1Q152 1 119 -2T58 -5Q29 -5 29 6Q29 18 62 24Q101 31 118 47T136 99V549Q136 584 122 599T69 622Q36 628 36 642Q36 653 65 653Q88 653 168 651Q237 649 350 651T468 653Q485
653 486 644Q497 586 498 541Q498 532 484 532Q476 532 473 542Q461 578 450 591Q426 618 383 618H252Q243 618 232 609T220 588Q216 556 216 374Z" />
<glyph unicode="a;" glyph-name="Ecircumflex" horiz-adv-x="541" d="M282 763Q274 768 272 768T262 763Q195 725 183 718Q152 700 131 700Q120 700 117 707T123 722Q171 762 231 810Q233 811 236 814T241 818T246 821T250 824T253 827T257 829T260 830T264
831T268 832T272 832Q279 832 285 829T295 824T313 810Q373 762 421 722Q430 714 427 707T413 699Q404 699 378 714Q354 727 325 741T282 763ZM216 374Q216 352 226 352H330Q358 352 374 367Q385 377 391 391Q393 395 399 401T409 408Q413 408 418 403T422 392Q418
345 422 269Q422 252 413 252Q397 252 390 275Q379 310 343 314Q280 323 240 316Q215 311 216 291Q216 266 219 113Q220 74 234 55T282 35H386Q394 35 424 41T462 53Q481 68 504 116Q509 127 518 126Q524 126 528 123T531 114Q525 56 514 12Q510 -5 500 -5Q433
-5 327 -2T173 1Q152 1 119 -2T58 -5Q29 -5 29 6Q29 18 62 24Q101 31 118 47T136 99V549Q136 584 122 599T69 622Q36 628 36 642Q36 653 65 653Q88 653 168 651Q237 649 350 651T468 653Q485 653 486 644Q497 586 498 541Q498 532 484 532Q476 532 473 542Q461
578 450 591Q426 618 383 618H252Q243 618 232 609T220 588Q216 556 216 374Z" />
<glyph unicode="b;" glyph-name="Edieresis" horiz-adv-x="541" d="M344 810T366 810T405 794T422 755T406 716T367 700T328 716T312 755T328 794ZM154 810T176 810T215 794T232 755T216 716T177 700T138 716T122 755T138 794ZM216 374Q216 352 226 352H330Q358
352 374 367Q385 377 391 391Q393 395 399 401T409 408Q413 408 418 403T422 392Q418 345 422 269Q422 252 413 252Q397 252 390 275Q379 310 343 314Q280 323 240 316Q215 311 216 291Q216 266 219 113Q220 74 234 55T282 35H386Q394 35 424 41T462 53Q481 68
504 116Q509 127 518 126Q524 126 528 123T531 114Q525 56 514 12Q510 -5 500 -5Q433 -5 327 -2T173 1Q152 1 119 -2T58 -5Q29 -5 29 6Q29 18 62 24Q101 31 118 47T136 99V549Q136 584 122 599T69 622Q36 628 36 642Q36 653 65 653Q88 653 168 651Q237 649 350
651T468 653Q485 653 486 644Q497 586 498 541Q498 532 484 532Q476 532 473 542Q461 578 450 591Q426 618 383 618H252Q243 618 232 609T220 588Q216 556 216 374Z" />
<glyph unicode="c;" glyph-name="Igrave" horiz-adv-x="383" d="M250 705Q175 726 62 754Q30 761 30 780Q31 810 65 826Q88 837 117 821Q183 787 281 725Q289 720 289 712T284 703Q272 700 250 705ZM151 550Q151 585 137 600T84 622Q51 628 51 642Q51 653
80 653Q108 653 141 652T197 650Q217 650 247 651T306 653Q335 653 335 642Q335 628 302 622Q263 615 247 600T231 550V98Q231 64 250 48T310 24Q343 18 343 6Q343 -5 314 -5Q286 -5 253 -3T197 0Q172 0 134 -2T69 -5Q40 -5 40 6Q40 18 73 24Q113 31 132 47T151
98V550Z" />
<glyph unicode="d;" glyph-name="Iacute" horiz-adv-x="383" d="M94 705Q72 700 60 703Q54 704 54 712T63 725Q161 787 227 821Q256 837 279 826Q313 810 314 780Q314 761 282 754Q169 726 94 705ZM151 550Q151 585 137 600T84 622Q51 628 51 642Q51 653 80
653Q108 653 141 652T197 650Q217 650 247 651T306 653Q335 653 335 642Q335 628 302 622Q263 615 247 600T231 550V98Q231 64 250 48T310 24Q343 18 343 6Q343 -5 314 -5Q286 -5 253 -3T197 0Q172 0 134 -2T69 -5Q40 -5 40 6Q40 18 73 24Q113 31 132 47T151 98V550Z"
/>
<glyph unicode="e;" glyph-name="Icircumflex" horiz-adv-x="383" d="M191 763Q183 768 181 768T171 763Q104 725 92 718Q61 700 40 700Q29 700 26 707T32 722Q80 762 140 810Q142 811 145 814T150 818T155 821T159 824T162 827T166 829T169 830T173 831T177
832T181 832Q188 832 194 829T204 824T222 810Q282 762 330 722Q339 714 336 707T322 699Q313 699 287 714Q263 727 234 741T191 763ZM151 550Q151 585 137 600T84 622Q51 628 51 642Q51 653 80 653Q108 653 141 652T197 650Q217 650 247 651T306 653Q335 653 335
642Q335 628 302 622Q263 615 247 600T231 550V98Q231 64 250 48T310 24Q343 18 343 6Q343 -5 314 -5Q286 -5 253 -3T197 0Q172 0 134 -2T69 -5Q40 -5 40 6Q40 18 73 24Q113 31 132 47T151 98V550Z" />
<glyph unicode="f;" glyph-name="Idieresis" horiz-adv-x="383" d="M253 810T275 810T314 794T331 755T315 716T276 700T237 716T221 755T237 794ZM63 810T85 810T124 794T141 755T125 716T86 700T47 716T31 755T47 794ZM151 550Q151 585 137 600T84 622Q51
628 51 642Q51 653 80 653Q108 653 141 652T197 650Q217 650 247 651T306 653Q335 653 335 642Q335 628 302 622Q263 615 247 600T231 550V98Q231 64 250 48T310 24Q343 18 343 6Q343 -5 314 -5Q286 -5 253 -3T197 0Q172 0 134 -2T69 -5Q40 -5 40 6Q40 18 73 24Q113
31 132 47T151 98V550Z" />
<glyph unicode="&#xd0;" glyph-name="Eth" horiz-adv-x="754" d="M70 353H377Q383 353 387 349T390 339Q378 317 359 317H60Q54 317 50 323T46 335Q46 342 53 347T70 353ZM166 0Q146 0 116 -2T58 -5Q29 -5 29 6Q29 18 62 24Q100 31 114 47T129 99V549Q129 584
115 599T62 622Q29 628 29 642Q29 653 58 653T115 652T162 651Q183 650 256 654T340 659Q534 659 619 575T704 335Q704 194 609 94T371 -7Q367 -7 290 -4T166 0ZM609 346Q609 466 535 547T345 628Q313 628 297 628T261 624T232 615T217 597T210 567V121Q210 93
218 79T245 50Q260 39 277 34T305 29T340 29T376 30Q449 30 503 78T583 196T609 346Z" />
<glyph unicode="&#xd1;" glyph-name="Ntilde" horiz-adv-x="790" d="M260 738Q279 765 307 790T347 815Q360 815 426 811T504 807Q532 807 561 844Q563 847 568 844T578 835T580 826Q564 803 536 774T498 744Q486 744 417 748T336 752Q309 752 281 720Q277 716
267 725T260 738ZM674 568Q672 520 672 8Q672 -17 651 -17Q640 -17 616 -1T570 46Q541 86 214 484Q202 499 195 499T187 494T184 479Q172 348 170 104Q169 36 234 24Q267 18 267 6Q267 -5 238 -5T185 -3T144 0Q129 0 106 -2T53 -5T24 6Q24 18 57 24Q81 29 97 58T115
107Q120 150 144 504Q147 551 124 576Q99 602 43 620Q12 630 12 644T35 658Q66 657 107 655T189 653Q201 653 213 636Q226 618 400 399T594 156Q627 116 629 157Q631 188 631 358T631 564Q630 582 611 599T573 619Q540 625 540 639Q540 650 569 650Q590 650 618
650T649 650Q662 650 686 651T741 653Q770 653 770 642Q770 628 737 622Q700 615 688 604T674 568Z" />
<glyph unicode="&#xd2;" glyph-name="Ograve" horiz-adv-x="763" d="M446 705Q371 726 258 754Q226 761 226 780Q227 810 261 826Q284 837 313 821Q379 787 477 725Q485 720 485 712T480 703Q468 700 446 705ZM375 625Q269 625 206 543T142 350Q142 218 214 122T395
25Q505 25 563 99T621 305Q621 451 557 538T375 625ZM45 320Q45 462 134 561T382 664Q519 667 618 574T718 335Q718 267 696 205T633 93T526 15T382 -14Q247 -14 146 83T45 320Z" />
<glyph unicode="&#xd3;" glyph-name="Oacute" horiz-adv-x="763" d="M290 705Q268 700 256 703Q250 704 250 712T259 725Q357 787 423 821Q452 837 475 826Q509 810 510 780Q510 761 478 754Q365 726 290 705ZM375 625Q269 625 206 543T142 350Q142 218 214 122T395
25Q505 25 563 99T621 305Q621 451 557 538T375 625ZM45 320Q45 462 134 561T382 664Q519 667 618 574T718 335Q718 267 696 205T633 93T526 15T382 -14Q247 -14 146 83T45 320Z" />
<glyph unicode="&#xd4;" glyph-name="Ocircumflex" horiz-adv-x="763" d="M387 763Q379 768 377 768T367 763Q300 725 288 718Q257 700 236 700Q225 700 222 707T228 722Q276 762 336 810Q367 831 377 832Q384 832 391 829T401 824T418 810Q478 762 526 722Q535
714 532 707T518 699Q509 699 483 714Q459 727 430 741T387 763ZM375 625Q269 625 206 543T142 350Q142 218 214 122T395 25Q505 25 563 99T621 305Q621 451 557 538T375 625ZM45 320Q45 462 134 561T382 664Q519 667 618 574T718 335Q718 267 696 205T633 93T526
15T382 -14Q247 -14 146 83T45 320Z" />
<glyph unicode="&#xd5;" glyph-name="Otilde" horiz-adv-x="763" d="M217 738Q236 765 264 790T304 815Q316 815 382 811T461 807Q489 807 518 844Q520 847 525 844T535 835T537 826Q521 803 493 774T455 744Q442 744 374 748T293 752Q266 752 238 720Q234 716
224 725T217 738ZM375 625Q269 625 206 543T142 350Q142 218 214 122T395 25Q505 25 563 99T621 305Q621 451 557 538T375 625ZM45 320Q45 462 134 561T382 664Q519 667 618 574T718 335Q718 267 696 205T633 93T526 15T382 -14Q247 -14 146 83T45 320Z" />
<glyph unicode="&#xd6;" glyph-name="Odieresis" horiz-adv-x="763" d="M450 810T472 810T510 794T527 755T511 716T472 700T434 716T417 755T433 794ZM260 810T282 810T320 794T337 755T321 716T282 700T244 716T227 755T243 794ZM375 625Q269 625 206 543T142
350Q142 218 214 122T395 25Q505 25 563 99T621 305Q621 451 557 538T375 625ZM45 320Q45 462 134 561T382 664Q519 667 618 574T718 335Q718 267 696 205T633 93T526 15T382 -14Q247 -14 146 83T45 320Z" />
<glyph unicode="&#xd7;" glyph-name="multiply" horiz-adv-x="600" d="M290 299Q294 295 297 298L441 441Q445 446 451 446T460 441Q461 438 465 432T470 422T474 412T477 403T476 395T470 386L339 255Q336 252 339 250L482 107Q492 97 483 81T465 56T447 57L298
207Q294 210 291 207L148 64Q144 60 139 60T130 63Q125 68 120 75T109 95T113 114L247 248Q252 252 246 258L125 379Q117 386 120 399T128 421T136 434Q146 444 155 434L290 299Z" />
<glyph unicode="&#xd8;" glyph-name="Oslash" horiz-adv-x="773" d="M380 625Q274 625 211 543T147 350Q147 245 194 160L568 529Q503 625 380 625ZM50 320Q50 462 139 561T387 664Q521 667 619 579L699 658Q704 663 712 662T723 654Q730 632 719 621L647 549Q723
460 723 335Q723 267 701 205T638 93T531 15T387 -14Q263 -14 166 69L86 -11Q77 -17 65 -12T50 0Q44 11 59 26L134 100Q50 194 50 320ZM589 492L219 122Q293 25 400 25Q510 25 568 99T626 305Q626 417 589 492Z" />
<glyph unicode="&#xd9;" glyph-name="Ugrave" horiz-adv-x="738" d="M452 705Q378 726 264 754Q232 761 232 780Q234 810 267 826Q290 837 319 821Q386 787 483 725Q491 720 492 712T486 703Q475 700 452 705ZM645 547Q644 531 635 254Q631 137 560 62T380 -14Q242
-14 173 77T103 322V547Q103 607 57 620Q24 629 24 642Q24 653 53 653Q67 653 98 652T149 650Q166 650 193 651T229 652Q258 652 258 641Q258 632 225 621Q211 617 197 597T183 549V294Q183 191 245 114T403 36Q496 36 544 107T592 300Q592 357 588 511Q586 609
547 620Q514 629 514 640T543 651Q558 651 581 651T618 650Q635 650 662 651T699 653Q728 653 728 642Q728 629 695 622Q648 613 645 547Z" />
<glyph unicode="&#xda;" glyph-name="Uacute" horiz-adv-x="738" d="M296 705Q274 700 262 703Q256 704 256 712T265 725Q363 787 429 821Q459 837 481 826Q515 810 516 780Q516 761 484 754Q371 726 296 705ZM645 547Q644 531 635 254Q631 137 560 62T380 -14Q242
-14 173 77T103 322V547Q103 607 57 620Q24 629 24 642Q24 653 53 653Q67 653 98 652T149 650Q166 650 193 651T229 652Q258 652 258 641Q258 632 225 621Q211 617 197 597T183 549V294Q183 191 245 114T403 36Q496 36 544 107T592 300Q592 357 588 511Q586 609
547 620Q514 629 514 640T543 651Q558 651 581 651T618 650Q635 650 662 651T699 653Q728 653 728 642Q728 629 695 622Q648 613 645 547Z" />
<glyph unicode="&#xdb;" glyph-name="Ucircumflex" horiz-adv-x="738" d="M393 763Q385 768 384 768T373 763Q307 725 294 718Q264 700 242 700Q231 700 228 707T234 722Q283 762 342 810Q344 811 348 814T353 818T357 821T361 824T364 827T368 829T372 830T375
831T379 832T383 832Q391 832 397 829T407 824T424 810Q484 762 532 722Q541 714 539 707T524 699Q515 699 489 714Q465 727 436 741T393 763ZM645 547Q644 531 635 254Q631 137 560 62T380 -14Q242 -14 173 77T103 322V547Q103 607 57 620Q24 629 24 642Q24 653
53 653Q67 653 98 652T149 650Q166 650 193 651T229 652Q258 652 258 641Q258 632 225 621Q211 617 197 597T183 549V294Q183 191 245 114T403 36Q496 36 544 107T592 300Q592 357 588 511Q586 609 547 620Q514 629 514 640T543 651Q558 651 581 651T618 650Q635
650 662 651T699 653Q728 653 728 642Q728 629 695 622Q648 613 645 547Z" />
<glyph unicode="&#xdc;" glyph-name="Udieresis" horiz-adv-x="738" d="M456 810T478 810T516 794T533 755T517 716T478 700T440 716T423 755T439 794ZM266 810T288 810T326 794T343 755T327 716T288 700T250 716T233 755T249 794ZM645 547Q644 531 635 254Q631
137 560 62T380 -14Q242 -14 173 77T103 322V547Q103 607 57 620Q24 629 24 642Q24 653 53 653Q67 653 98 652T149 650Q166 650 193 651T229 652Q258 652 258 641Q258 632 225 621Q211 617 197 597T183 549V294Q183 191 245 114T403 36Q496 36 544 107T592 300Q592
357 588 511Q586 609 547 620Q514 629 514 640T543 651Q558 651 581 651T618 650Q635 650 662 651T699 653Q728 653 728 642Q728 629 695 622Q648 613 645 547Z" />
<glyph unicode="&#xdd;" glyph-name="Yacute" horiz-adv-x="578" d="M228 705Q205 700 194 703Q187 704 188 712T197 725Q295 787 361 821Q390 837 413 826Q446 810 448 780Q448 761 416 754Q302 726 228 705ZM264 108V256Q264 267 262 277T257 297T250 311T243
323T239 330Q186 415 122 522Q67 610 33 620Q0 630 0 642Q0 653 29 653Q42 653 81 652T146 650Q163 650 190 651T226 652Q255 652 255 641Q255 632 222 621Q212 618 205 612T194 593T203 560Q233 508 260 459T295 395Q301 385 303 381T309 371T315 363T319 359T324
357T328 360T333 364T339 372T347 382T356 395Q414 476 440 534Q452 560 445 587T417 620Q384 629 384 640T413 651Q428 651 451 651T488 650Q508 650 541 651T584 653Q613 653 613 642Q613 629 580 622Q540 614 480 526Q427 445 369 346Q351 315 348 301T344 256V108Q344
74 364 53T423 24Q456 18 456 6Q456 -5 427 -5Q399 -5 366 -3T310 0Q286 0 248 -2T182 -5Q153 -5 153 6Q153 18 186 24Q264 38 264 108Z" />
<glyph unicode="&#xde;" glyph-name="Thorn" horiz-adv-x="559" d="M134 99V549Q134 582 123 599T77 622Q44 628 44 642Q44 653 73 653T130 652T177 650Q199 650 233 651T296 653Q325 653 325 642Q325 628 292 622Q252 615 233 599T214 549Q214 542 214 538T215
527T219 516T227 514Q259 524 315 524Q401 524 459 474T518 339Q518 304 495 258T439 186Q400 156 332 143T223 137Q220 138 218 136T215 128T214 118T214 102Q214 98 214 96Q214 38 293 24Q326 18 326 6Q326 -5 297 -5Q269 -5 236 -3T180 0Q155 0 117 -2T51 -5Q22
-5 22 6Q22 18 55 24Q95 31 114 48T134 99ZM238 165Q274 161 308 167T362 189Q426 238 426 338Q426 399 390 445T298 491Q242 490 229 483Q216 478 214 462Q212 335 213 183Q213 177 222 172T238 165Z" />
<glyph unicode="&#xdf;" glyph-name="germandbls" horiz-adv-x="514" d="M286 -13Q269 -13 228 -4Q223 -3 222 -2T219 2L218 4Q212 17 205 48T197 98Q197 109 211 109Q212 109 223 86T255 40T305 17Q343 17 361 48T380 124Q380 177 330 206Q297 225 232 225Q230
225 228 225T223 226T220 228T220 232Q308 352 344 409Q349 417 340 420Q322 424 294 424Q226 424 182 373Q158 345 150 317T138 242Q135 183 138 81Q139 24 177 19Q181 19 182 14T182 4T177 -1Q157 -1 135 0T97 1Q81 1 55 0T13 -1Q9 -1 8 4T9 14T16 21Q28 24 33
26T47 34T59 50T63 75V223Q63 278 81 326T130 405Q149 424 189 439T271 454T360 445T431 428Q434 427 437 423T438 416Q436 414 429 405T415 387T404 371Q351 302 322 256Q320 254 321 251T325 247Q354 247 378 241Q418 231 441 201T464 128Q464 62 416 25T286
-13Z" />
<glyph unicode="&#xe0;" glyph-name="agrave" horiz-adv-x="555" d="M270 337Q249 285 199 176Q196 170 199 168T212 166H329Q337 166 338 167T337 176Q331 198 282 337Q279 345 278 347T275 347T270 337ZM37 -3Q31 -3 31 8T37 21Q73 33 94 50Q112 64 125 92Q170
187 241 360Q245 373 248 386Q249 391 250 399T252 412L253 418Q259 419 276 431T298 449Q310 463 312 463Q316 463 319 454Q339 400 378 288T444 107Q455 75 479 50Q501 26 524 21Q530 19 531 8T524 -3Q505 -3 476 -1T428 2Q407 2 374 0T324 -3Q320 -3 319 3T320
15T325 21Q351 26 365 48Q373 62 367 89Q365 100 353 132Q351 139 334 139H192Q185 139 180 127Q165 87 164 84Q159 61 165 51Q180 27 207 21Q214 20 214 9T207 -3Q187 -3 157 -1T108 2Q94 2 72 0T37 -3ZM317 512Q283 559 248 597T196 652T179 677Q179 687 189
696T213 705Q247 705 264 678Q286 642 321 578T357 503Q357 490 344 490Q333 490 317 512Z" />
<glyph unicode="&#xe1;" glyph-name="aacute" horiz-adv-x="555" d="M270 337Q249 285 199 176Q196 170 199 168T212 166H329Q337 166 338 167T337 176Q331 198 282 337Q279 345 278 347T275 347T270 337ZM37 -3Q31 -3 31 8T37 21Q73 33 94 50Q112 64 125 92Q170
187 241 360Q245 373 248 386Q249 391 250 399T252 412L253 418Q259 419 276 431T298 449Q310 463 312 463Q316 463 319 454Q339 400 378 288T444 107Q455 75 479 50Q501 26 524 21Q530 19 531 8T524 -3Q505 -3 476 -1T428 2Q407 2 374 0T324 -3Q320 -3 319 3T320
15T325 21Q351 26 365 48Q373 62 367 89Q365 100 353 132Q351 139 334 139H192Q185 139 180 127Q165 87 164 84Q159 61 165 51Q180 27 207 21Q214 20 214 9T207 -3Q187 -3 157 -1T108 2Q94 2 72 0T37 -3ZM269 512Q253 490 242 490Q229 490 229 503Q229 513 264
577T322 678Q339 705 373 705Q386 705 396 696T407 677Q407 669 391 653T339 598T269 512Z" />
<glyph unicode="&#xe2;" glyph-name="acircumflex" horiz-adv-x="555" d="M270 337Q249 285 199 176Q196 170 199 168T212 166H329Q337 166 338 167T337 176Q331 198 282 337Q279 345 278 347T275 347T270 337ZM37 -3Q31 -3 31 8T37 21Q73 33 94 50Q112 64 125
92Q170 187 241 360Q245 373 248 386Q249 391 250 399T252 412L253 418Q259 419 276 431T298 449Q310 463 312 463Q316 463 319 454Q339 400 378 288T444 107Q455 75 479 50Q501 26 524 21Q530 19 531 8T524 -3Q505 -3 476 -1T428 2Q407 2 374 0T324 -3Q320 -3
319 3T320 15T325 21Q351 26 365 48Q373 62 367 89Q365 100 353 132Q351 139 334 139H192Q185 139 180 127Q165 87 164 84Q159 61 165 51Q180 27 207 21Q214 20 214 9T207 -3Q187 -3 157 -1T108 2Q94 2 72 0T37 -3ZM218 520Q205 502 190 502Q184 502 181 508T182
523Q239 637 260 674Q277 703 288 703T316 674L394 523Q398 514 395 508T386 502Q370 502 357 520Q317 575 288 616L218 520Z" />
<glyph unicode="&#xe3;" glyph-name="atilde" horiz-adv-x="555" d="M270 337Q249 285 199 176Q196 170 199 168T212 166H329Q337 166 338 167T337 176Q331 198 282 337Q279 345 278 347T275 347T270 337ZM37 -3Q31 -3 31 8T37 21Q73 33 94 50Q112 64 125 92Q170
187 241 360Q245 373 248 386Q249 391 250 399T252 412L253 418Q259 419 276 431T298 449Q310 463 312 463Q316 463 319 454Q339 400 378 288T444 107Q455 75 479 50Q501 26 524 21Q530 19 531 8T524 -3Q505 -3 476 -1T428 2Q407 2 374 0T324 -3Q320 -3 319 3T320
15T325 21Q351 26 365 48Q373 62 367 89Q365 100 353 132Q351 139 334 139H192Q185 139 180 127Q165 87 164 84Q159 61 165 51Q180 27 207 21Q214 20 214 9T207 -3Q187 -3 157 -1T108 2Q94 2 72 0T37 -3ZM166 547Q187 577 213 602T253 628Q262 628 304 621T360
614Q369 614 375 615T391 625T414 650Q416 653 421 650T430 641T432 632Q413 605 387 577T348 548Q339 548 294 554T236 561Q217 561 181 525Q179 523 174 526T166 536T166 547Z" />
<glyph unicode="&#xe4;" glyph-name="adieresis" horiz-adv-x="555" d="M270 337Q249 285 199 176Q196 170 199 168T212 166H329Q337 166 338 167T337 176Q331 198 282 337Q279 345 278 347T275 347T270 337ZM37 -3Q31 -3 31 8T37 21Q73 33 94 50Q112 64 125 92Q170
187 241 360Q245 373 248 386Q249 391 250 399T252 412L253 418Q259 419 276 431T298 449Q310 463 312 463Q316 463 319 454Q339 400 378 288T444 107Q455 75 479 50Q501 26 524 21Q530 19 531 8T524 -3Q505 -3 476 -1T428 2Q407 2 374 0T324 -3Q320 -3 319 3T320
15T325 21Q351 26 365 48Q373 62 367 89Q365 100 353 132Q351 139 334 139H192Q185 139 180 127Q165 87 164 84Q159 61 165 51Q180 27 207 21Q214 20 214 9T207 -3Q187 -3 157 -1T108 2Q94 2 72 0T37 -3ZM363 613T381 613T416 598T432 563T416 529T382 513T348
528T332 563T347 597ZM186 613T204 613T238 598T254 563T239 529T205 513T170 528T154 563T170 597Z" />
<glyph unicode="&#xe5;" glyph-name="aring" horiz-adv-x="555" d="M270 337Q249 285 199 176Q196 170 199 168T212 166H329Q337 166 338 167T337 176Q331 198 282 337Q279 345 278 347T275 347T270 337ZM37 -3Q31 -3 31 8T37 21Q73 33 94 50Q112 64 125 92Q170
187 241 360Q245 373 248 386Q249 391 250 399T252 412L253 418Q259 419 276 431T298 449Q310 463 312 463Q316 463 319 454Q339 400 378 288T444 107Q455 75 479 50Q501 26 524 21Q530 19 531 8T524 -3Q505 -3 476 -1T428 2Q407 2 374 0T324 -3Q320 -3 319 3T320
15T325 21Q351 26 365 48Q373 62 367 89Q365 100 353 132Q351 139 334 139H192Q185 139 180 127Q165 87 164 84Q159 61 165 51Q180 27 207 21Q214 20 214 9T207 -3Q187 -3 157 -1T108 2Q94 2 72 0T37 -3Z" />
<glyph unicode="&#xe6;" glyph-name="ae" horiz-adv-x="644" d="M330 176Q330 188 314 188H216Q203 188 195 173Q159 115 137 74Q115 34 176 20Q200 14 200 7Q200 -1 179 -1Q175 -1 144 0T92 1Q77 1 52 -1T17 -3Q-4 -3 -4 4Q-4 10 20 18Q58 29 92 83Q123 134 189
239T284 392Q287 396 283 399T272 403L210 413Q204 415 203 420T203 430T210 435Q221 435 268 434T344 433Q384 433 442 434T541 435T588 436Q599 436 600 430Q607 393 609 357Q609 351 599 351Q586 351 585 358Q578 380 569 390Q552 408 522 408H431Q425 408 420
403T413 391Q408 361 407 343Q405 279 405 237Q405 222 412 222Q468 222 485 223Q508 225 516 232Q523 238 528 248Q529 250 534 254T543 259T549 256T552 249Q548 219 552 158Q552 147 545 147Q539 147 534 152T527 162Q519 186 494 188Q465 189 422 189Q414 189
409 185T405 173Q405 151 407 75Q409 23 452 23H524Q530 23 551 27T578 35Q588 42 607 77Q611 84 622 83Q626 83 629 81T631 75Q626 33 619 8Q617 -3 609 -3Q561 -3 477 -1T356 1Q342 1 320 -1T276 -3Q256 -3 256 4Q256 12 279 16Q307 21 319 31T331 65Q330 101
330 176ZM319 383Q313 373 226 229Q222 222 224 221T235 219H319Q323 219 325 219T328 220T330 223T330 229V383Q330 395 328 395T319 383Z" />
<glyph unicode="&#xe7;" glyph-name="ccedilla" horiz-adv-x="429" d="M186 -142Q180 -144 172 -136T172 -117L260 -5H290L252 -56Q248 -63 251 -68T258 -76Q284 -87 302 -107T320 -152Q320 -206 274 -246T194 -287Q177 -287 170 -275Q161 -258 166 -237Q168 -231
172 -229T182 -228Q207 -238 230 -238Q249 -238 259 -226T270 -193Q270 -167 251 -154T202 -140Q192 -140 186 -142ZM263 458Q309 458 335 450Q341 448 363 444T392 437Q397 436 401 416Q405 373 406 340Q406 335 402 329T393 324Q373 326 371 346Q367 380 346
401Q335 412 307 419T247 427Q176 427 136 370T95 239Q95 154 140 89T261 21Q300 20 345 47Q372 62 383 99Q384 104 395 108T413 112Q422 112 420 94Q418 82 407 55T387 15Q382 5 333 -4T239 -14Q147 -14 80 56T12 222Q12 322 86 390T263 458Z" />
<glyph unicode="&#xe8;" glyph-name="egrave" horiz-adv-x="421" d="M257 216Q209 223 171 217Q154 214 154 200Q154 168 156 90Q158 39 199 39H287Q292 39 310 43T335 51Q353 66 367 97Q371 104 382 104Q391 104 391 96Q387 56 374 10Q372 -2 365 -2Q314 -2 234
0T122 3L15 -3Q13 -3 12 3T11 15T15 21Q46 30 60 42Q79 59 79 79V357Q79 398 70 407Q67 410 65 412T61 416T57 419T51 421T45 423T37 426T27 429Q22 430 22 440T27 450Q41 450 66 449T108 448Q146 448 202 449T297 450T343 451Q354 451 355 445Q366 388 366 353Q366
347 355 347Q350 347 347 354Q338 381 327 392Q312 410 285 410H179Q173 410 168 405T162 392Q157 364 156 339Q154 273 154 268Q154 253 161 253H248Q267 253 278 263Q287 272 290 281Q299 294 304 294Q307 294 310 291T313 283Q310 243 313 182Q315 170 307 170Q298
170 289 189Q283 211 257 216ZM215 513Q181 560 146 598T94 653T77 678Q77 688 87 697T111 706Q145 706 162 679Q184 643 219 579T255 504Q255 491 242 491Q231 491 215 513Z" />
<glyph unicode="&#xe9;" glyph-name="eacute" horiz-adv-x="421" d="M257 216Q209 223 171 217Q154 214 154 200Q154 168 156 90Q158 39 199 39H287Q292 39 310 43T335 51Q353 66 367 97Q371 104 382 104Q391 104 391 96Q387 56 374 10Q372 -2 365 -2Q314 -2 234
0T122 3L15 -3Q13 -3 12 3T11 15T15 21Q46 30 60 42Q79 59 79 79V357Q79 398 70 407Q67 410 65 412T61 416T57 419T51 421T45 423T37 426T27 429Q22 430 22 440T27 450Q41 450 66 449T108 448Q146 448 202 449T297 450T343 451Q354 451 355 445Q366 388 366 353Q366
347 355 347Q350 347 347 354Q338 381 327 392Q312 410 285 410H179Q173 410 168 405T162 392Q157 364 156 339Q154 273 154 268Q154 253 161 253H248Q267 253 278 263Q287 272 290 281Q299 294 304 294Q307 294 310 291T313 283Q310 243 313 182Q315 170 307 170Q298
170 289 189Q283 211 257 216ZM189 513Q173 491 162 491Q149 491 149 504Q149 514 184 578T242 679Q259 706 293 706Q306 706 316 697T327 678Q327 670 311 654T259 599T189 513Z" />
<glyph unicode="&#xea;" glyph-name="ecircumflex" horiz-adv-x="421" d="M257 216Q209 223 171 217Q154 214 154 200Q154 168 156 90Q158 39 199 39H287Q292 39 310 43T335 51Q353 66 367 97Q371 104 382 104Q391 104 391 96Q387 56 374 10Q372 -2 365 -2Q314
-2 234 0T122 3L15 -3Q13 -3 12 3T11 15T15 21Q46 30 60 42Q79 59 79 79V357Q79 398 70 407Q67 410 65 412T61 416T57 419T51 421T45 423T37 426T27 429Q22 430 22 440T27 450Q41 450 66 449T108 448Q146 448 202 449T297 450T343 451Q354 451 355 445Q366 388
366 353Q366 347 355 347Q350 347 347 354Q338 381 327 392Q312 410 285 410H179Q173 410 168 405T162 392Q157 364 156 339Q154 273 154 268Q154 253 161 253H248Q267 253 278 263Q287 272 290 281Q299 294 304 294Q307 294 310 291T313 283Q310 243 313 182Q315
170 307 170Q298 170 289 189Q283 211 257 216ZM136 522Q123 504 108 504Q102 504 99 510T100 525Q157 639 178 676Q195 705 206 705T234 676L312 525Q316 516 313 510T304 504Q288 504 275 522Q235 577 206 618L136 522Z" />
<glyph unicode="&#xeb;" glyph-name="edieresis" horiz-adv-x="421" d="M281 611T300 611T334 596T350 561T335 527T300 511T266 526T250 561T265 595ZM104 611T123 611T157 596T173 561T158 527T123 511T89 526T73 561T88 595ZM257 216Q209 223 171 217Q154 214
154 200Q154 168 156 90Q158 39 199 39H287Q292 39 310 43T335 51Q353 66 367 97Q371 104 382 104Q391 104 391 96Q387 56 374 10Q372 -2 365 -2Q314 -2 234 0T122 3L15 -3Q13 -3 12 3T11 15T15 21Q46 30 60 42Q79 59 79 79V357Q79 398 70 407Q67 410 65 412T61
416T57 419T51 421T45 423T37 426T27 429Q22 430 22 440T27 450Q41 450 66 449T108 448Q146 448 202 449T297 450T343 451Q354 451 355 445Q366 388 366 353Q366 347 355 347Q350 347 347 354Q338 381 327 392Q312 410 285 410H179Q173 410 168 405T162 392Q157
364 156 339Q154 273 154 268Q154 253 161 253H248Q267 253 278 263Q287 272 290 281Q299 294 304 294Q307 294 310 291T313 283Q310 243 313 182Q315 170 307 170Q298 170 289 189Q283 211 257 216Z" />
<glyph unicode="&#xec;" glyph-name="igrave" horiz-adv-x="321" d="M203 377V82Q203 58 217 45Q236 27 270 21Q279 19 279 8T270 -3Q250 -3 219 -1T168 2Q147 2 114 0T61 -3Q57 -3 55 2T53 14T61 21Q96 28 115 45Q128 57 128 82V377Q128 391 112 405Q99 416 68
429Q65 430 64 436T63 447T68 452Q90 452 119 451T168 450Q186 450 214 451T263 452Q269 452 269 442T263 429Q229 415 217 404Q203 394 203 377ZM184 513Q150 560 115 598T63 653T46 678Q46 688 56 697T80 706Q114 706 131 679Q153 643 188 579T224 504Q224 491
211 491Q200 491 184 513Z" />
<glyph unicode="&#xed;" glyph-name="iacute" horiz-adv-x="321" d="M203 377V82Q203 58 217 45Q236 27 270 21Q279 19 279 8T270 -3Q250 -3 219 -1T168 2Q147 2 114 0T61 -3Q57 -3 55 2T53 14T61 21Q96 28 115 45Q128 57 128 82V377Q128 391 112 405Q99 416 68
429Q65 430 64 436T63 447T68 452Q90 452 119 451T168 450Q186 450 214 451T263 452Q269 452 269 442T263 429Q229 415 217 404Q203 394 203 377ZM134 515Q118 493 107 493Q94 493 94 506Q94 516 129 580T187 681Q204 708 238 708Q251 708 261 699T272 680Q272
672 256 656T204 601T134 515Z" />
<glyph unicode="&#xee;" glyph-name="icircumflex" horiz-adv-x="321" d="M203 377V82Q203 58 217 45Q236 27 270 21Q279 19 279 8T270 -3Q250 -3 219 -1T168 2Q147 2 114 0T61 -3Q57 -3 55 2T53 14T61 21Q96 28 115 45Q128 57 128 82V377Q128 391 112 405Q99
416 68 429Q65 430 64 436T63 447T68 452Q90 452 119 451T168 450Q186 450 214 451T263 452Q269 452 269 442T263 429Q229 415 217 404Q203 394 203 377ZM96 522Q83 504 68 504Q62 504 59 510T60 525Q117 639 138 676Q155 705 166 705T194 676L272 525Q276 516
273 510T264 504Q248 504 235 522Q195 577 166 618L96 522Z" />
<glyph unicode="&#xef;" glyph-name="idieresis" horiz-adv-x="321" d="M237 612T255 612T290 597T306 562T290 528T256 512T222 527T206 562T221 596ZM60 612T78 612T112 597T128 562T113 528T79 512T44 527T28 562T44 596ZM203 377V82Q203 58 217 45Q236 27
270 21Q279 19 279 8T270 -3Q250 -3 219 -1T168 2Q147 2 114 0T61 -3Q57 -3 55 2T53 14T61 21Q96 28 115 45Q128 57 128 82V377Q128 391 112 405Q99 416 68 429Q65 430 64 436T63 447T68 452Q90 452 119 451T168 450Q186 450 214 451T263 452Q269 452 269 442T263
429Q229 415 217 404Q203 394 203 377Z" />
<glyph unicode="&#xf0;" glyph-name="eth" horiz-adv-x="519" d="M181 43Q194 33 267 33Q330 33 376 81Q421 130 421 242Q421 306 373 363T246 422Q158 422 158 383V91Q158 61 181 43ZM263 -3Q260 -3 209 0T125 3Q101 3 64 2T21 0Q17 0 17 11T21 24Q48 31 64 48Q82
67 83 89V350Q83 390 74 400Q64 411 59 414T34 423Q31 424 29 430T27 442T33 448Q47 448 73 447T115 446Q128 446 181 449T243 453Q370 453 438 391T506 235Q505 146 452 79Q425 45 374 21T263 -3Z" />
<glyph unicode="&#xf1;" glyph-name="ntilde" horiz-adv-x="631" d="M67 -3Q60 -3 61 8T67 21Q97 26 107 37Q120 51 122 81Q129 200 129 361Q129 390 123 397Q103 421 59 425Q52 425 52 437T59 449Q64 448 132 448T203 449Q207 449 209 447T215 441T219 434Q253
393 339 287T489 110Q490 109 492 106T497 100T501 97T505 99T507 110Q510 199 504 378Q504 387 498 394T483 407T465 415T447 421T435 425Q432 426 432 436T435 447Q453 447 479 445T523 443T565 445T606 447Q609 447 610 436T606 425Q587 422 571 409Q553 397
552 382Q549 331 548 282T546 201T546 110T547 13Q547 2 540 -6T522 -14Q496 -14 472 13Q349 164 204 329Q195 339 189 341T182 341T179 332Q173 142 175 73Q177 50 186 40Q199 25 221 21Q227 20 227 9T218 -3Q200 -3 178 -1T142 1Q127 1 104 -1T67 -3ZM199 532Q220
562 246 587T286 613Q295 613 337 606T393 599Q402 599 407 600T423 610T447 635Q449 638 454 635T462 625T465 617Q445 589 420 561T381 533Q371 533 327 539T269 546Q250 546 214 510Q211 507 206 511T199 521T199 532Z" />
<glyph unicode="&#xf2;" glyph-name="ograve" horiz-adv-x="605" d="M297 424Q220 424 186 369T151 232Q151 140 194 81T319 22Q360 22 390 40T437 87T460 148T468 212Q468 297 425 360T297 424ZM66 217Q66 310 137 383T303 456Q405 456 478 389T552 221Q552 123
486 54T303 -15Q203 -15 135 52T66 217ZM320 512Q286 559 251 597T199 652T182 677Q182 687 192 696T216 705Q250 705 267 678Q289 642 324 578T360 503Q360 490 347 490Q336 490 320 512Z" />
<glyph unicode="&#xf3;" glyph-name="oacute" horiz-adv-x="605" d="M297 424Q220 424 186 369T151 232Q151 140 194 81T319 22Q360 22 390 40T437 87T460 148T468 212Q468 297 425 360T297 424ZM66 217Q66 310 137 383T303 456Q405 456 478 389T552 221Q552 123
486 54T303 -15Q203 -15 135 52T66 217ZM305 513Q289 491 278 491Q265 491 265 504Q265 514 300 578T358 679Q375 706 409 706Q422 706 432 697T443 678Q443 670 427 654T375 599T305 513Z" />
<glyph unicode="&#xf4;" glyph-name="ocircumflex" horiz-adv-x="605" d="M297 424Q220 424 186 369T151 232Q151 140 194 81T319 22Q360 22 390 40T437 87T460 148T468 212Q468 297 425 360T297 424ZM66 217Q66 310 137 383T303 456Q405 456 478 389T552 221Q552
123 486 54T303 -15Q203 -15 135 52T66 217ZM232 522Q219 504 204 504Q198 504 195 510T196 525Q253 639 274 676Q291 705 302 705T330 676L408 525Q412 516 409 510T400 504Q384 504 371 522Q331 577 302 618L232 522Z" />
<glyph unicode="&#xf5;" glyph-name="otilde" horiz-adv-x="605" d="M297 424Q220 424 186 369T151 232Q151 140 194 81T319 22Q360 22 390 40T437 87T460 148T468 212Q468 297 425 360T297 424ZM66 217Q66 310 137 383T303 456Q405 456 478 389T552 221Q552 123
486 54T303 -15Q203 -15 135 52T66 217ZM182 514Q203 544 229 569T269 595Q278 595 320 588T376 581Q385 581 391 582T407 592T430 617Q432 620 437 617T446 608T448 599Q429 572 403 544T364 515Q355 515 310 521T252 528Q233 528 197 492Q195 490 190 493T182
503T182 514Z" />
<glyph unicode="&#xf6;" glyph-name="odieresis" horiz-adv-x="605" d="M297 424Q220 424 186 369T151 232Q151 140 194 81T319 22Q360 22 390 40T437 87T460 148T468 212Q468 297 425 360T297 424ZM66 217Q66 310 137 383T303 456Q405 456 478 389T552 221Q552
123 486 54T303 -15Q203 -15 135 52T66 217ZM382 613T400 613T434 598T450 563T435 529T401 513T366 528T350 563T366 597ZM205 613T223 613T258 598T274 563T258 529T224 513T190 528T174 563T189 597Z" />
<glyph unicode="&#xf7;" glyph-name="divide" d="M276 161T295 161T327 148T341 115T328 83T295 69T263 82T249 115T262 147ZM276 445T295 445T327 432T340 399T327 367T294 353T262 366T248 399T262 431ZM64 232Q59 232 55 235T50 244Q50 254 56 268T74 282H527Q533
282 537 278T540 268Q536 256 534 250T525 238T509 232H64Z" />
<glyph unicode="&#xf8;" glyph-name="oslash" horiz-adv-x="605" d="M297 424Q220 424 186 369T151 232Q151 140 194 81T319 22Q360 22 390 40T437 87T460 148T468 212Q468 297 425 360T297 424ZM66 217Q66 310 137 383T303 456Q405 456 478 389T552 221Q552 123
486 54T303 -15Q203 -15 135 52T66 217Z" />
<glyph unicode="&#xf9;" glyph-name="ugrave" horiz-adv-x="563" d="M80 204V372Q80 392 74 403T62 417T41 425Q37 426 35 432T33 444T39 450Q55 450 82 449T126 448Q138 448 156 449T195 450Q201 450 201 439T195 426Q156 421 155 365Q154 338 154 303T154 231T155
185Q155 118 197 70T307 22Q371 22 401 62T431 193V350Q432 393 423 405T386 425Q379 427 379 439T387 451H459Q474 451 499 451T540 452Q546 452 545 442T540 430Q484 419 482 375Q475 298 475 217Q475 -13 294 -13Q193 -13 137 49T80 204ZM325 509Q291 556 256
594T204 649T187 674Q187 684 197 693T221 702Q255 702 272 675Q294 639 329 575T365 500Q365 487 352 487Q341 487 325 509Z" />
<glyph unicode="&#xfa;" glyph-name="uacute" horiz-adv-x="563" d="M80 204V372Q80 392 74 403T62 417T41 425Q37 426 35 432T33 444T39 450Q55 450 82 449T126 448Q138 448 156 449T195 450Q201 450 201 439T195 426Q156 421 155 365Q154 338 154 303T154 231T155
185Q155 118 197 70T307 22Q371 22 401 62T431 193V350Q432 393 423 405T386 425Q379 427 379 439T387 451H459Q474 451 499 451T540 452Q546 452 545 442T540 430Q484 419 482 375Q475 298 475 217Q475 -13 294 -13Q193 -13 137 49T80 204ZM261 511Q245 489 234
489Q221 489 221 502Q221 512 256 576T314 677Q331 704 365 704Q378 704 388 695T399 676Q399 668 383 652T331 597T261 511Z" />
<glyph unicode="&#xfb;" glyph-name="ucircumflex" horiz-adv-x="563" d="M80 204V372Q80 392 74 403T62 417T41 425Q37 426 35 432T33 444T39 450Q55 450 82 449T126 448Q138 448 156 449T195 450Q201 450 201 439T195 426Q156 421 155 365Q154 338 154 303T154
231T155 185Q155 118 197 70T307 22Q371 22 401 62T431 193V350Q432 393 423 405T386 425Q379 427 379 439T387 451H459Q474 451 499 451T540 452Q546 452 545 442T540 430Q484 419 482 375Q475 298 475 217Q475 -13 294 -13Q193 -13 137 49T80 204ZM223 519Q210
501 195 501Q189 501 186 507T187 522Q244 636 265 673Q282 702 293 702T321 673L399 522Q403 513 400 507T391 501Q375 501 362 519Q322 574 293 615L223 519Z" />
<glyph unicode="&#xfc;" glyph-name="udieresis" horiz-adv-x="563" d="M80 204V372Q80 392 74 403T62 417T41 425Q37 426 35 432T33 444T39 450Q55 450 82 449T126 448Q138 448 156 449T195 450Q201 450 201 439T195 426Q156 421 155 365Q154 338 154 303T154
231T155 185Q155 118 197 70T307 22Q371 22 401 62T431 193V350Q432 393 423 405T386 425Q379 427 379 439T387 451H459Q474 451 499 451T540 452Q546 452 545 442T540 430Q484 419 482 375Q475 298 475 217Q475 -13 294 -13Q193 -13 137 49T80 204ZM350 613T368
613T402 598T418 563T403 529T369 513T334 528T318 563T334 597ZM173 613T191 613T226 598T242 563T226 529T192 513T158 528T142 563T157 597Z" />
<glyph unicode="&#xfd;" glyph-name="yacute" horiz-adv-x="494" d="M30 426Q26 426 24 432T22 444T27 450Q43 450 69 449T111 448T152 449T197 450Q202 450 202 440T197 428Q150 421 170 385Q186 357 196 341T219 309T240 279Q244 273 249 266T254 257T258 255T261
256T267 266T277 279Q323 343 343 382Q351 399 340 411T307 427Q301 428 301 439T309 451H381Q396 451 418 451T455 452Q461 452 460 442T455 431Q412 425 370 361Q355 335 334 305T294 246Q291 241 287 235T282 227T279 221T276 216T275 210T275 203T275 193Q276
176 276 137T275 82Q275 59 288 47Q308 29 340 23Q346 22 348 15T348 2T340 -4Q320 -4 290 -1T241 2Q220 2 186 -1T134 -4Q130 -4 128 2T126 15T134 23Q167 29 187 47Q200 59 200 82V193Q200 211 188 235Q175 259 162 277T131 319T101 359Q99 362 91 375T76 398T57
416T30 426ZM232 518Q216 496 205 496Q192 496 192 509Q192 519 227 583T285 684Q302 711 336 711Q349 711 359 702T370 683Q370 675 354 659T302 604T232 518Z" />
<glyph unicode="&#xfe;" glyph-name="thorn" horiz-adv-x="559" d="M134 99V549Q134 582 123 599T77 622Q44 628 44 642Q44 653 73 653T130 652T177 650Q199 650 233 651T296 653Q325 653 325 642Q325 628 292 622Q252 615 233 599T214 549Q214 542 214 538T215
527T219 516T227 514Q259 524 315 524Q401 524 459 474T518 339Q518 304 495 258T439 186Q400 156 332 143T223 137Q220 138 218 136T215 128T214 118T214 102Q214 98 214 96Q214 38 293 24Q326 18 326 6Q326 -5 297 -5Q269 -5 236 -3T180 0Q155 0 117 -2T51 -5Q22
-5 22 6Q22 18 55 24Q95 31 114 48T134 99ZM238 165Q274 161 308 167T362 189Q426 238 426 338Q426 399 390 445T298 491Q242 490 229 483Q216 478 214 462Q212 335 213 183Q213 177 222 172T238 165Z" />
<glyph unicode="&#xff;" glyph-name="ydieresis" horiz-adv-x="494" d="M323 612T341 612T376 597T392 562T376 528T342 512T308 527T292 562T307 596ZM146 612T164 612T198 597T214 562T199 528T165 512T130 527T114 562T130 596ZM30 426Q26 426 24 432T22 444T27
450Q43 450 69 449T111 448T152 449T197 450Q202 450 202 440T197 428Q150 421 170 385Q186 357 196 341T219 309T240 279Q244 273 249 266T254 257T258 255T261 256T267 266T277 279Q323 343 343 382Q351 399 340 411T307 427Q301 428 301 439T309 451H381Q396
451 418 451T455 452Q461 452 460 442T455 431Q412 425 370 361Q355 335 334 305T294 246Q291 241 287 235T282 227T279 221T276 216T275 210T275 203T275 193Q276 176 276 137T275 82Q275 59 288 47Q308 29 340 23Q346 22 348 15T348 2T340 -4Q320 -4 290 -1T241
2Q220 2 186 -1T134 -4Q130 -4 128 2T126 15T134 23Q167 29 187 47Q200 59 200 82V193Q200 211 188 235Q175 259 162 277T131 319T101 359Q99 362 91 375T76 398T57 416T30 426Z" />
</font>
</defs>
</svg>
